<?xml version="1.0" encoding="utf-8"?>
<!-- Svg Vector Icons : http://www.onlinewebfonts.com/icon -->
<!DOCTYPE svg PUBLIC "-//W3C//DTD SVG 1.1//EN" "http://www.w3.org/Graphics/SVG/1.1/DTD/svg11.dtd">
<svg version="1.1" xmlns="http://www.w3.org/2000/svg" xmlns:xlink="http://www.w3.org/1999/xlink" x="0px" y="0px" viewBox="0 0 1000 1000" enable-background="new 0 0 1000 1000" xml:space="preserve">
<metadata> Svg Vector Icons : http://www.onlinewebfonts.com/icon </metadata>
<g><path d="M746.4,736c5,18.7,24.2,29.8,42.9,24.8c18.7-5,29.8-24.2,24.7-42.9l-140.4-524c-5-18.7-24.2-29.7-42.9-24.8c-18.7,5-29.7,24.2-24.7,42.9L746.4,736z M535,771.2c19.3,0,35-15.7,35-35v-420c0-19.3-15.7-35-35-35c-19.3,0-35,15.7-35,35v420C500,755.5,515.7,771.2,535,771.2z M955,648.7c-19.3,0-35,15.7-35,35v141c-4.7,33.2-19.2,47.2-55.4,51.5H145.9c-45.2-3.1-61.4-17.4-65.9-56.5v-136c0-19.3-15.7-35-35-35s-35,15.7-35,35v172.5c0,48.8,40.7,90,89.5,90h765.7v0h41.6c45.9,0,83.1-22.7,83.1-68.6v-44.1h0.1V683.7C990,664.4,974.3,648.7,955,648.7z M255,771.2c19.3,0,35-15.7,35-35V88.8c0-19.3-15.7-35-35-35c-19.3,0-35,15.7-35,35v647.5C220,755.5,235.7,771.2,255,771.2z M395,771.2c19.3,0,35-15.7,35-35V193.8c0-19.3-15.7-35-35-35c-19.3,0-35,15.7-35,35v542.5C360,755.5,375.7,771.2,395,771.2z"/></g>
</svg>