<?xml version="1.0" encoding="utf-8"?>
<svg viewBox="119.54199981689453 80.14299774169922 229.23300170898438 275.7439880371094" width="229.23300170898438" height="275.7439880371094" xmlns="http://www.w3.org/2000/svg" xmlns:bx="https://boxy-svg.com">
  <line style="stroke: rgb(0, 0, 0); stroke-width: 2.5;" x1="158.832" y1="86.964" x2="325.616" y2="105.478" transform="matrix(0.9947090148925781, -0.10257299989461899, 0.1028899997472763, 0.9947090148925781, -8.618579864501953, 25.354774475097656)"/>
  <line style="stroke: rgb(0, 0, 0); stroke-width: 2.5;" x1="152.923" y1="317.625" x2="325.183" y2="336.909" transform="matrix(0.9947250485420227, -0.10257499665021896, 0.10257499665021896, 0.9947250485420227, -32.30844879150389, 26.24708366394043)"/>
  <line style="stroke: rgb(0, 0, 0); stroke-width: 2.5;" x1="142.674" y1="328.928" x2="321.965" y2="348.122" transform="matrix(0.9947250485420227, -0.10257499665021896, 0.10257499665021896, 0.9947250485420227, -33.49878692626952, 25.615800857543945)"/>
  <line style="stroke: rgb(0, 0, 0); stroke-width: 2.5;" x1="326.715" y1="331.205" x2="321.19" y2="339.195" transform="matrix(0.9947090148925781, -0.10257299989461899, 0.10288899391889572, 0.9947090148925781, -32.774570465087876, 35.002227783203125)"/>
  <line style="stroke: rgb(0, 0, 0); stroke-width: 2.5;" x1="313.944" y1="330.863" x2="337.495" y2="96.307" transform="matrix(0.9947090148925781, -0.10257299989461899, 0.1028899997472763, 0.9947090148925781, -20.252357482910142, 34.540103912353516)"/>
  <line style="stroke: rgb(0, 0, 0); stroke-width: 0.5;" x1="150.745" y1="321.892" x2="324.486" y2="340.818" transform="matrix(0.9947250485420227, -0.10257499665021896, 0.10257499665021896, 0.9947250485420227, -32.7354164123535, 26.121246337890625)"/>
  <line style="stroke: rgb(0, 0, 0); stroke-width: 0.5;" x1="146.21" y1="324.79" x2="324.538" y2="344.19" transform="matrix(0.9947250485420227, -0.10257499665021896, 0.10257499665021896, 0.9947250485420227, -33.068778991699205, 25.90782928466797)"/>
  <line style="stroke: rgb(0, 0, 0); stroke-width: 0.5;" x1="144.756" y1="326.336" x2="323.084" y2="345.735" transform="matrix(0.9947250485420227, -0.10257499665021896, 0.10257499665021896, 0.9947250485420227, -33.234897613525376, 25.766773223876953)"/>
  <line style="stroke: rgb(0, 0, 0); stroke-width: 0.8;" x1="177.532" y1="106.849" x2="168.228" y2="199.88" transform="matrix(0.9947090148925781, -0.10257299989461899, 0.10288899391889572, 0.9947090148925781, -14.864899635314927, 18.544208526611328)"/>
  <line style="stroke: rgb(0, 0, 0); stroke-width: 0.8;" x1="315.161" y1="107.817" x2="305.857" y2="200.795" transform="matrix(0.9947090148925781, -0.10257299989461899, 0.10288899391889572, 0.9947090148925781, -14.233597755432115, 32.666175842285156)"/>
  <line style="stroke: rgb(0, 0, 0); stroke-width: 0.8;" x1="172.682" y1="99.772" x2="309.643" y2="115.029" transform="matrix(0.9947090148925781, -0.10257299989461899, 0.10288899391889572, 0.9947090148925781, -9.7744207382202, 25.30494499206543)"/>
  <line style="stroke: rgb(0, 0, 0); stroke-width: 0.8;" x1="173.258" y1="192.862" x2="310.641" y2="208.119" transform="matrix(0.9947090148925781, -0.10257299989461899, 0.10288899391889572, 0.9947090148925781, -19.348247528076158, 25.878215789794922)"/>
  <path d="M 141.722 339.376 L 143.005 116.619 L 158.308 95.647 L 155.71 325.953 L 142.115 339.374 Z" transform="matrix(1, 0, 0, 1, 0, 0)"/>
  <line style="stroke: rgb(0, 0, 0); stroke-width: 2;" x1="184.056" y1="112.911" x2="298.857" y2="124.899" transform="matrix(0.9947090148925781, -0.10257299989461899, 0.10288899391889572, 0.9947090148925781, -10.956556320190415, 25.39596939086914)"/>
  <line style="stroke: rgb(0, 0, 0); stroke-width: 0.75;" x1="273.165" y1="119.591" x2="269.656" y2="156.028" transform="matrix(0.9947090148925781, -0.10257299989461899, 0.10288899391889572, 0.9947090148925781, -12.743147850036607, 28.568456649780273)"/>
  <line style="stroke: rgb(0, 0, 0); stroke-width: 0.75;" x1="250.036" y1="119.369" x2="246.526" y2="155.805" transform="matrix(0.9947090148925781, -0.10257299989461899, 0.10288899391889572, 0.9947090148925781, -12.842629432678208, 26.1948184967041)"/>
  <line style="stroke: rgb(0, 0, 0); stroke-width: 0.75;" x1="214.845" y1="115.326" x2="211.457" y2="151.728" transform="matrix(0.8363440036773682, 0.5473610758781433, -0.54905104637146, 0.8363440036773682, 108.19660949707031, -94.81809997558592)"/>
  <path d="M 187.735 154.077 C 188.05 149.209 192.253 145.517 197.122 145.83 C 201.992 146.144 205.684 150.345 205.368 155.212 C 205.053 160.081 200.85 163.772 195.98 163.459 C 191.111 163.145 187.419 158.945 187.735 154.077 Z M 196.121 161.626 C 200.107 161.883 203.545 158.887 203.801 154.935 C 204.058 150.983 201.035 147.571 197.049 147.314 C 193.064 147.058 189.626 150.053 189.369 154.005 C 189.113 157.957 192.136 161.37 196.121 161.626 Z" transform="matrix(0.9947090148925781, -0.10257299989461899, 0.10288899391889572, 0.9947090148925781, -14.871356010436998, 20.979028701782227)"/>
  <path d="M 239.482 163.879 C 239.797 159.012 244.001 155.319 248.87 155.632 C 253.74 155.946 257.431 160.147 257.115 165.015 C 256.8 169.883 252.597 173.575 247.727 173.261 C 242.858 172.948 239.166 168.747 239.482 163.879 Z M 247.868 171.428 C 251.854 171.686 255.292 168.689 255.548 164.737 C 255.805 160.785 252.782 157.373 248.796 157.117 C 244.811 156.86 241.373 159.856 241.116 163.808 C 240.86 167.76 243.883 171.172 247.868 171.428 Z" transform="matrix(0.9947090148925781, -0.10257299989461899, 0.10288899391889572, 0.9947090148925781, -15.60610198974608, 26.338729858398438)"/>
  <path d="M 262.926 164.275 C 263.241 159.407 267.444 155.715 272.313 156.028 C 277.183 156.342 280.875 160.543 280.559 165.41 C 280.244 170.279 276.04 173.971 271.17 173.657 C 266.301 173.344 262.61 169.143 262.926 164.275 Z M 271.312 171.824 C 275.298 172.082 278.736 169.085 278.992 165.133 C 279.248 161.181 276.225 157.769 272.239 157.513 C 268.254 157.256 264.816 160.252 264.56 164.204 C 264.303 168.156 267.327 171.568 271.312 171.824 Z" transform="matrix(0.9947090148925781, -0.10257299989461899, 0.10288899391889572, 0.9947090148925781, -15.522804260253892, 28.745534896850586)"/>
  <path style="stroke: rgb(0, 0, 0); fill-opacity: 0;" d="M 206.113 157.492 C 211.849 162.766 219.341 165.335 228.59 165.2" transform="matrix(0.9947090148925781, -0.10257299989461899, 0.10288899391889572, 0.9947090148925781, -15.451079368591294, 23.148012161254883)"/>
  <path d="M 113.653 85.697 L 115.297 90.417 L 112.009 90.417 L 113.653 85.697 Z" transform="matrix(0.08793500810861588, 0.9961270093917847, -0.9961010217666626, 0.08818500488996506, 308.8243408203125, 42.76788330078125)" bx:shape="triangle 112.009 85.697 3.288 4.72 0.5 0 1@fa9eb01b"/>
  <polyline style="fill: rgb(216, 216, 216); stroke: rgb(0, 0, 0);" points="155.657 97.633" transform="matrix(0.9999859929084778, -0.005205000285059214, 0.0052210004068911076, 0.9999859929084778, -0.5076280236244202, 0.8115120530128479)"/>
  <polyline style="fill: rgb(216, 216, 216); stroke: rgb(0, 0, 0);" points="155.317 98.172" transform="matrix(0.9999859929084778, -0.005205000285059214, 0.0052210004068911076, 0.9999859929084778, -0.5104489922523499, 0.8097540140151978)"/>
  <polygon style="fill: rgb(216, 216, 216); stroke: rgb(0, 0, 0);" points="155.316 97.927" transform="matrix(0.9999859929084778, -0.005205000285059214, 0.0052210004068911076, 0.9999859929084778, -0.5091670155525208, 0.8097410202026367)"/>
  <path style="fill: rgb(216, 216, 216); stroke: rgb(0, 0, 0);" d="M 244.297 161.469" transform="matrix(0.9999859929084778, -0.005205000285059214, 0.0052210004068911076, 0.9999859929084778, -0.8397230505943298, 1.2737640142440796)"/>
  <line style="stroke: rgb(0, 0, 0); stroke-width: 0.5;" x1="148.577" y1="323.288" x2="325.159" y2="342.508" transform="matrix(0.9947250485420227, -0.10257499665021896, 0.10257499665021896, 0.9947250485420227, -32.897647857666, 26.052722930908203)"/>
  <path d="M 204.056 237.544 L 208.356 246.404 L 208.976 248.534 L 209.096 248.534 L 209.576 246.324 L 212.796 237.544 L 214.836 237.544 L 210.586 248.464 C 210.153 249.597 209.773 250.544 209.446 251.304 C 209.119 252.064 208.786 252.681 208.446 253.154 C 208.113 253.627 207.753 253.964 207.366 254.164 C 206.986 254.364 206.516 254.464 205.956 254.464 C 205.429 254.464 205.009 254.421 204.696 254.334 C 204.383 254.247 204.089 254.114 203.816 253.934 L 204.416 252.284 C 204.736 252.457 205.033 252.567 205.306 252.614 C 205.579 252.661 205.826 252.684 206.046 252.684 C 206.499 252.684 206.876 252.457 207.176 252.004 C 207.483 251.551 207.746 250.874 207.966 249.974 L 201.756 237.544 L 204.056 237.544 ZM 215.459 259.144 L 215.459 242.344 L 216.779 242.344 L 217.139 243.784 L 217.229 243.784 C 217.602 243.224 218.079 242.797 218.659 242.504 C 219.246 242.204 219.916 242.054 220.669 242.054 C 222.269 242.054 223.459 242.527 224.239 243.474 C 225.026 244.414 225.419 245.957 225.419 248.104 C 225.419 249.111 225.286 250.017 225.019 250.824 C 224.759 251.637 224.389 252.324 223.909 252.884 C 223.429 253.444 222.849 253.874 222.169 254.174 C 221.489 254.481 220.732 254.634 219.899 254.634 C 219.306 254.634 218.836 254.597 218.489 254.524 C 218.149 254.451 217.779 254.327 217.379 254.154 L 217.379 259.144 L 215.459 259.144 Z M 220.309 243.734 C 219.489 243.734 218.842 243.947 218.369 244.374 C 217.902 244.794 217.572 245.437 217.379 246.304 L 217.379 252.254 C 217.666 252.481 217.992 252.654 218.359 252.774 C 218.726 252.894 219.216 252.954 219.829 252.954 C 220.929 252.954 221.802 252.541 222.449 251.714 C 223.102 250.894 223.429 249.684 223.429 248.084 C 223.429 247.424 223.372 246.827 223.259 246.294 C 223.146 245.754 222.966 245.297 222.719 244.924 C 222.472 244.551 222.152 244.257 221.759 244.044 C 221.366 243.837 220.882 243.734 220.309 243.734 ZM 227.772 248.344 C 227.772 246.311 228.222 244.754 229.122 243.674 C 230.029 242.594 231.329 242.054 233.022 242.054 C 233.922 242.054 234.702 242.204 235.362 242.504 C 236.029 242.797 236.579 243.221 237.012 243.774 C 237.439 244.327 237.759 244.991 237.972 245.764 C 238.179 246.537 238.282 247.397 238.282 248.344 C 238.282 250.377 237.829 251.934 236.922 253.014 C 236.022 254.094 234.722 254.634 233.022 254.634 C 232.129 254.634 231.349 254.484 230.682 254.184 C 230.022 253.891 229.475 253.467 229.042 252.914 C 228.609 252.361 228.289 251.697 228.082 250.924 C 227.875 250.151 227.772 249.291 227.772 248.344 Z M 229.762 248.344 C 229.762 248.951 229.822 249.534 229.942 250.094 C 230.062 250.654 230.249 251.144 230.502 251.564 C 230.762 251.977 231.099 252.311 231.512 252.564 C 231.925 252.824 232.429 252.954 233.022 252.954 C 235.202 252.967 236.292 251.431 236.292 248.344 C 236.292 247.717 236.232 247.124 236.112 246.564 C 235.992 246.004 235.802 245.517 235.542 245.104 C 235.289 244.691 234.952 244.357 234.532 244.104 C 234.119 243.857 233.615 243.734 233.022 243.734 C 230.849 243.721 229.762 245.257 229.762 248.344 ZM 248.335 254.344 L 244.325 248.944 L 243.225 248.944 L 243.225 254.344 L 241.305 254.344 L 241.305 242.344 L 243.225 242.344 L 243.225 247.764 L 244.255 247.434 L 248.095 242.344 L 250.185 242.344 L 246.465 247.164 L 245.455 247.964 L 246.705 248.924 L 250.715 254.344 L 248.335 254.344 ZM 260.266 254.344 L 260.266 247.244 L 260.336 245.754 L 260.266 245.754 L 259.276 247.284 L 253.876 254.344 L 252.776 254.344 L 252.776 242.344 L 254.696 242.344 L 254.696 249.664 L 254.626 251.084 L 254.716 251.084 L 255.656 249.594 L 261.056 242.344 L 262.186 242.344 L 262.186 254.344 L 260.266 254.344 Z" transform="matrix(2.3389620780944824, 0, 0, 2.1788179874420166, -303.19293212890625, -281.3605041503906)" style="fill: rgb(51, 51, 51); white-space: pre;"/>
  <line style="stroke: rgb(0, 0, 0); stroke-width: 0.5;" x1="152.963" y1="320.331" x2="326.704" y2="339.257" transform="matrix(0.9947250485420227, -0.10257499665021896, 0.10257499665021896, 0.9947250485420227, -32.56356811523436, 26.340499877929688)"/>
</svg>