<svg height="512pt" viewBox="0 -40 512 512" width="512pt" xmlns="http://www.w3.org/2000/svg"><path d="m147.671875 20c2.628906 0 5.207031-1.070312 7.066406-2.929688 1.859375-1.859374 2.933594-4.441406 2.933594-7.070312s-1.070313-5.210938-2.933594-7.070312c-1.859375-1.859376-4.4375-2.929688-7.066406-2.929688-2.640625 0-5.222656 1.070312-7.070313 2.929688-1.871093 1.859374-2.929687 4.441406-2.929687 7.070312s1.058594 5.210938 2.929687 7.070312c1.859376 1.859376 4.429688 2.929688 7.070313 2.929688zm0 0"/><path d="m502 0h-309c-5.523438 0-10 4.476562-10 10s4.476562 10 10 10h299v392h-472v-392h82.332031c5.523438 0 10-4.476562 10-10s-4.476562-10-10-10h-92.332031c-5.523438 0-10 4.476562-10 10v412c0 5.523438 4.476562 10 10 10h492c5.523438 0 10-4.476562 10-10v-412c0-5.523438-4.476562-10-10-10zm0 0"/><path d="m40 50v332c0 5.523438 4.476562 10 10 10h412c5.523438 0 10-4.476562 10-10v-332c0-5.523438-4.476562-10-10-10h-412c-5.523438 0-10 4.476562-10 10zm180 322v-24h184v24zm-160-312h392v312h-28v-25.292969c0-10.3125-8.394531-18.707031-18.707031-18.707031h-186.585938c-10.3125 0-18.707031 8.390625-18.707031 18.707031v25.292969h-140zm0 0"/><path d="m171.667969 226h29.5c5.519531 0 10-4.476562 10-10s-4.480469-10-10-10h-29.5c-5.523438 0-10 4.476562-10 10s4.476562 10 10 10zm0 0"/><path d="m201.167969 266c5.519531 0 10-4.476562 10-10s-4.480469-10-10-10h-29.5c-5.523438 0-10 4.476562-10 10s4.476562 10 10 10zm0 0"/><path d="m243.953125 264.847656c5.523437 0 10-4.480468 10-10v-34.25c0-6.480468 5.273437-11.75 11.75-11.75 6.480469 0 11.75 5.269532 11.75 11.75v34.25c0 5.519532 4.480469 10 10 10 5.523437 0 10-4.480468 10-10v-34.25c0-6.480468 5.273437-11.75 11.75-11.75 6.480469 0 11.75 5.269532 11.75 11.75v34.25c0 5.519532 4.480469 10 10 10 5.523437 0 10-4.480468 10-10v-34.25c0-17.507812-14.242187-31.75-31.75-31.75-8.410156 0-16.0625 3.292969-21.75 8.648438-5.6875-5.355469-13.339844-8.648438-21.75-8.648438-17.507813 0-31.75 14.242188-31.75 31.75v34.25c0 5.519532 4.480469 10 10 10zm0 0"/><path d="m386.246094 264.847656h19.375c5.523437 0 10-4.480468 10-10v-51.691406c0-10.097656-8.214844-18.308594-18.3125-18.308594h-17.976563c-5.523437 0-10 4.476563-10 10 0 5.519532 4.476563 10 10 10h16.289063v9.457032h-9.378906c-13.933594 0-25.269532 11.335937-25.269532 25.269531 0 13.933593 11.335938 25.273437 25.273438 25.273437zm0-30.542968h9.375v10.542968h-9.375c-2.90625 0-5.273438-2.367187-5.273438-5.273437s2.367188-5.269531 5.273438-5.269531zm0 0"/><path d="m143 157h-44.832031c-5.523438 0-10 4.476562-10 10v88c0 5.523438 4.476562 10 10 10 5.519531 0 10-4.476562 10-10v-34h19.832031c5.523438 0 10-4.476562 10-10s-4.476562-10-10-10h-19.832031v-24h34.832031c5.523438 0 10-4.476562 10-10s-4.476562-10-10-10zm0 0"/></svg>