<?xml version="1.0" encoding="utf-8"?>
<svg viewBox="119.54199981689453 80.14299774169922 229.23300170898438 275.7439880371094" width="229.23300170898438" height="275.7439880371094" xmlns="http://www.w3.org/2000/svg" xmlns:bx="https://boxy-svg.com">
  <line style="stroke: rgb(0, 0, 0); stroke-width: 2.5;" x1="140.573" y1="70.641" x2="346.846" y2="91.509" transform="matrix(0.995612, -0.093578, 0.093578, 0.995612, -6.517432, 23.161631)"/>
  <line style="stroke: rgb(0, 0, 0); stroke-width: 2.5;" x1="133.27" y1="330.391" x2="346.315" y2="352.127" transform="matrix(0.995612, -0.093579, 0.093579, 0.995612, -30.882456, 23.937056)"/>
  <line style="stroke: rgb(0, 0, 0); stroke-width: 2.5;" x1="120.611" y1="343.119" x2="342.334" y2="364.753" transform="matrix(0.995612, -0.093579, 0.093579, 0.995612, -32.105267, 23.214106)"/>
  <line style="stroke: rgb(0, 0, 0); stroke-width: 2.5;" x1="348.006" y1="345.689" x2="341.36" y2="354.695" transform="matrix(0.995612, -0.093578, 0.093578, 0.995612, -31.257809, 33.791435)"/>
  <line style="stroke: rgb(0, 0, 0); stroke-width: 2.5;" x1="334.881" y1="345.428" x2="358.852" y2="81.05" transform="matrix(0.995612, -0.093578, 0.093578, 0.995612, -18.432426, 33.39481)"/>
  <line style="stroke: rgb(0, 0, 0); stroke-width: 0.5;" x1="130.583" y1="335.197" x2="345.45" y2="356.529" transform="matrix(0.995612, -0.093579, 0.093579, 0.995612, -31.321085, 23.791061)"/>
  <line style="stroke: rgb(0, 0, 0); stroke-width: 0.5;" x1="124.978" y1="338.461" x2="345.516" y2="360.327" transform="matrix(0.995612, -0.093579, 0.093579, 0.995612, -31.663668, 23.547388)"/>
  <line style="stroke: rgb(0, 0, 0); stroke-width: 0.5;" x1="123.182" y1="340.201" x2="343.719" y2="362.066" transform="matrix(0.995612, -0.093579, 0.093579, 0.995612, -31.834332, 23.386906)"/>
  <line style="stroke: rgb(0, 0, 0); stroke-width: 0.8;" x1="162.768" y1="92.995" x2="153.306" y2="197.854" transform="matrix(0.995612, -0.093578, 0.093578, 0.995612, -12.915071, 15.426931)"/>
  <line style="stroke: rgb(0, 0, 0); stroke-width: 0.8;" x1="332.806" y1="94.085" x2="323.343" y2="198.883" transform="matrix(0.995612, -0.093578, 0.093578, 0.995612, -12.268083, 31.343363)"/>
  <line style="stroke: rgb(0, 0, 0); stroke-width: 0.8;" x1="157.703" y1="85.065" x2="327.094" y2="102.261" transform="matrix(0.995612, -0.093578, 0.093578, 0.995612, -7.701146, 23.094187)"/>
  <line style="stroke: rgb(0, 0, 0); stroke-width: 0.8;" x1="158.415" y1="189.895" x2="328.326" y2="207.091" transform="matrix(0.995612, -0.093578, 0.093578, 0.995612, -17.506672, 23.645144)"/>
  <path d="M 119.542 354.895 L 121.127 104.044 L 140.034 80.427 L 136.824 339.779 L 120.027 354.893 Z"/>
  <line style="stroke: rgb(0, 0, 0); stroke-width: 2;" x1="171.779" y1="99.862" x2="313.744" y2="113.374" transform="matrix(0.995612, -0.093578, 0.093578, 0.995612, -8.911857, 23.185001)"/>
  <line style="stroke: rgb(0, 0, 0); stroke-width: 0.75;" x1="281.538" y1="107.372" x2="278" y2="148.442" transform="matrix(0.995612, -0.093578, 0.093578, 0.995612, -10.74165, 26.74151)"/>
  <line style="stroke: rgb(0, 0, 0); stroke-width: 0.75;" x1="252.963" y1="107.122" x2="249.424" y2="148.191" transform="matrix(0.995612, -0.093578, 0.093578, 0.995612, -10.843599, 24.06637)"/>
  <line style="stroke: rgb(0, 0, 0); stroke-width: 0.75;" x1="211.649" y1="102.039" x2="203.932" y2="144.131" transform="matrix(0.858802, 0.512308, -0.512308, 0.858802, 92.397125, -89.07338)"/>
  <path d="M 176.387 146.227 C 176.67 140.74 181.777 136.578 187.794 136.931 C 193.813 137.285 198.462 142.02 198.178 147.506 C 197.895 152.993 192.786 157.154 186.768 156.801 C 180.751 156.446 176.103 151.713 176.387 146.227 Z M 186.902 154.735 C 191.83 155.024 196.007 151.647 196.238 147.192 C 196.468 142.739 192.663 138.893 187.737 138.604 C 182.813 138.314 178.634 141.69 178.403 146.144 C 178.173 150.599 181.977 154.444 186.902 154.735 Z" transform="matrix(0.995612, -0.093578, 0.093578, 0.995612, -12.921633, 18.169994)"/>
  <path d="M 240.319 157.265 C 240.602 151.779 245.71 147.616 251.728 147.97 C 257.746 148.323 262.394 153.057 262.11 158.545 C 261.827 164.031 256.719 168.194 250.7 167.839 C 244.683 167.487 240.035 162.751 240.319 157.265 Z M 250.835 165.772 C 255.761 166.063 259.939 162.685 260.17 158.231 C 260.4 153.777 256.595 149.931 251.669 149.643 C 246.745 149.353 242.567 152.73 242.336 157.183 C 242.106 161.638 245.91 165.483 250.835 165.772 Z" transform="matrix(0.995612, -0.093578, 0.093578, 0.995612, -13.674063, 24.201065)"/>
  <path d="M 269.284 157.71 C 269.566 152.223 274.674 148.062 280.691 148.416 C 286.71 148.769 291.359 153.504 291.075 158.99 C 290.792 164.477 285.683 168.641 279.663 168.286 C 273.647 167.933 269 163.197 269.284 157.71 Z M 279.8 166.219 C 284.726 166.509 288.903 163.131 289.133 158.677 C 289.363 154.223 285.559 150.377 280.633 150.089 C 275.709 149.8 271.53 153.176 271.301 157.629 C 271.068 162.084 274.875 165.929 279.8 166.219 Z" transform="matrix(0.995612, -0.093578, 0.093578, 0.995612, -13.588745, 26.913515)"/>
  <path style="stroke: rgb(0, 0, 0); fill-opacity: 0;" d="M 199.023 150.068 C 206.219 156.012 215.522 158.908 226.936 158.756" transform="matrix(0.995612, -0.093578, 0.093578, 0.995612, -13.515279, 20.607796)"/>
  <path d="M 128.088 105.794 L 129.94 111.621 L 126.235 111.621 L 128.088 105.794 Z" transform="matrix(0.096398, 0.995343, -0.996888, 0.080443, 325.993286, 20.879372)" bx:shape="triangle 126.235 105.794 3.705 5.827 0.5 0 1@dc1ea41d"/>
  <polyline style="fill: rgb(216, 216, 216); stroke: rgb(0, 0, 0);" points="136.757 82.664" transform="matrix(0.999989, -0.004744, 0.004744, 0.999989, -0.390589, 0.649655)"/>
  <polyline style="fill: rgb(216, 216, 216); stroke: rgb(0, 0, 0);" points="136.338 83.271" transform="matrix(0.999989, -0.004744, 0.004744, 0.999989, -0.393473, 0.647674)"/>
  <polygon style="fill: rgb(216, 216, 216); stroke: rgb(0, 0, 0);" points="136.337 82.995" transform="matrix(0.999989, -0.004744, 0.004744, 0.999989, -0.392164, 0.647666)"/>
  <path style="fill: rgb(216, 216, 216); stroke: rgb(0, 0, 0);" d="M 246.271 154.551" transform="matrix(0.999989, -0.004744, 0.004744, 0.999989, -0.730362, 1.169958)"/>
  <line style="stroke: rgb(0, 0, 0); stroke-width: 0.5;" x1="127.904" y1="336.769" x2="346.283" y2="358.433" transform="matrix(0.995612, -0.093579, 0.093579, 0.995612, -31.487778, 23.712315)"/>
  <line style="stroke: rgb(0, 0, 0); stroke-width: 0.5;" x1="133.323" y1="333.439" x2="348.19" y2="354.77" transform="matrix(0.995612, -0.093579, 0.093579, 0.995612, -31.144503, 24.039751)"/>
  <path d="M 197.326 217.123 L 200.406 217.123 L 193.106 230.683 C 192.466 231.883 191.703 232.783 190.816 233.383 C 189.929 233.983 188.966 234.283 187.926 234.283 C 187.093 234.283 186.266 234.106 185.446 233.753 L 186.216 231.303 C 186.876 231.516 187.419 231.623 187.846 231.623 C 188.859 231.623 189.693 231.103 190.346 230.063 L 190.606 229.653 L 183.916 217.123 L 187.246 217.123 L 192.216 226.983 L 197.326 217.123 ZM 208.848 220.963 C 210.095 220.963 211.211 221.236 212.198 221.783 C 213.178 222.323 213.948 223.09 214.508 224.083 C 215.068 225.076 215.348 226.22 215.348 227.513 C 215.348 228.813 215.068 229.963 214.508 230.963 C 213.948 231.963 213.178 232.733 212.198 233.273 C 211.211 233.82 210.095 234.093 208.848 234.093 C 207.121 234.093 205.755 233.516 204.748 232.363 L 204.748 238.583 L 201.748 238.583 L 201.748 221.103 L 204.598 221.103 L 204.598 222.783 C 205.098 222.176 205.711 221.723 206.438 221.423 C 207.165 221.116 207.968 220.963 208.848 220.963 Z M 208.508 231.523 C 209.615 231.523 210.525 231.156 211.238 230.423 C 211.951 229.683 212.308 228.713 212.308 227.513 C 212.308 226.313 211.951 225.346 211.238 224.613 C 210.525 223.873 209.615 223.503 208.508 223.503 C 207.788 223.503 207.141 223.67 206.568 224.003 C 205.995 224.33 205.538 224.796 205.198 225.403 C 204.865 226.01 204.698 226.713 204.698 227.513 C 204.698 228.313 204.865 229.016 205.198 229.623 C 205.538 230.236 205.995 230.706 206.568 231.033 C 207.141 231.36 207.788 231.523 208.508 231.523 ZM 224.04 234.093 C 222.74 234.093 221.57 233.813 220.53 233.253 C 219.49 232.693 218.68 231.913 218.1 230.913 C 217.513 229.913 217.22 228.78 217.22 227.513 C 217.22 226.253 217.513 225.126 218.1 224.133 C 218.68 223.14 219.49 222.363 220.53 221.803 C 221.57 221.243 222.74 220.963 224.04 220.963 C 225.353 220.963 226.53 221.243 227.57 221.803 C 228.61 222.363 229.42 223.14 230 224.133 C 230.586 225.126 230.88 226.253 230.88 227.513 C 230.88 228.78 230.586 229.913 230 230.913 C 229.42 231.913 228.61 232.693 227.57 233.253 C 226.53 233.813 225.353 234.093 224.04 234.093 Z M 224.04 231.523 C 225.14 231.523 226.05 231.156 226.77 230.423 C 227.49 229.683 227.85 228.713 227.85 227.513 C 227.85 226.313 227.49 225.346 226.77 224.613 C 226.05 223.873 225.14 223.503 224.04 223.503 C 222.933 223.503 222.023 223.873 221.31 224.613 C 220.603 225.346 220.25 226.313 220.25 227.513 C 220.25 228.713 220.603 229.683 221.31 230.423 C 222.023 231.156 222.933 231.523 224.04 231.523 ZM 243.022 233.923 L 239.152 228.783 L 236.832 228.783 L 236.832 233.923 L 233.832 233.923 L 233.832 221.103 L 236.832 221.103 L 236.832 226.293 L 239.232 226.293 L 243.022 221.103 L 246.232 221.103 L 241.582 227.273 L 246.552 233.923 L 243.022 233.923 ZM 248.662 233.923 L 248.662 221.103 L 251.662 221.103 L 251.662 229.553 L 258.742 221.103 L 261.472 221.103 L 261.472 233.923 L 258.472 233.923 L 258.472 225.473 L 251.422 233.923 L 248.662 233.923 Z" transform="matrix(2.1230249404907227, 0, 0, 2.0035340785980225, -231.85752868652344, -191.3050537109375)" style="white-space: pre;"/>
</svg>