<?xml version="1.0" encoding="utf-8"?>
<svg viewBox="119.54199981689453 80.14299774169922 229.23300170898438 275.7439880371094" width="229.23300170898438" height="275.7439880371094" xmlns="http://www.w3.org/2000/svg" xmlns:xlink="http://www.w3.org/1999/xlink" xmlns:bx="https://boxy-svg.com">
  <defs>
    <symbol id="symbol-0" viewBox="0 0 52.8516 32.3208">
      <path d="M 170.065 290.573 L 167.905 290.573 L 167.905 276.413 L 170.065 276.413 L 170.065 290.573 Z M 172.945 290.573 L 170.785 290.573 L 170.785 276.413 L 172.945 276.413 L 172.945 290.573 Z M 175.105 290.573 L 173.665 290.573 L 173.665 276.413 L 175.105 276.413 L 175.105 290.573 Z M 170.165 298.233 L 170.165 292.663 L 171.935 292.663 C 172.528 292.663 172.968 292.813 173.255 293.113 C 173.562 293.406 173.715 293.783 173.715 294.243 C 173.715 294.69 173.572 295.06 173.285 295.353 C 172.992 295.64 172.558 295.783 171.985 295.783 L 170.805 295.783 L 170.805 298.233 L 170.165 298.233 Z M 170.805 295.233 L 171.915 295.233 C 172.315 295.233 172.602 295.143 172.775 294.963 C 172.968 294.803 173.065 294.573 173.065 294.273 C 173.065 293.966 172.968 293.726 172.775 293.553 C 172.582 293.36 172.302 293.263 171.935 293.263 L 170.805 293.263 L 170.805 295.233 ZM 176.543 290.573 L 175.823 290.573 L 175.823 276.413 L 176.543 276.413 L 176.543 290.573 Z M 179.423 290.573 L 177.983 290.573 L 177.983 276.413 L 179.423 276.413 L 179.423 290.573 Z M 183.023 290.573 L 182.303 290.573 L 182.303 276.413 L 183.023 276.413 L 183.023 290.573 Z M 178.203 298.233 L 178.203 292.303 L 178.923 292.303 L 178.923 292.353 C 178.87 292.4 178.843 292.44 178.843 292.473 C 178.83 292.52 178.823 292.59 178.823 292.683 L 178.823 294.873 C 178.983 294.633 179.183 294.433 179.423 294.273 C 179.663 294.126 179.91 294.053 180.163 294.053 C 180.55 294.053 180.856 294.19 181.083 294.463 C 181.303 294.736 181.413 295.166 181.413 295.753 L 181.413 298.233 L 180.793 298.233 L 180.793 295.783 C 180.793 295.363 180.72 295.066 180.573 294.893 C 180.433 294.7 180.25 294.603 180.023 294.603 C 179.83 294.603 179.646 294.66 179.473 294.773 C 179.28 294.866 179.126 295.02 179.013 295.233 C 178.886 295.42 178.823 295.633 178.823 295.873 L 178.823 298.233 L 178.203 298.233 ZM 185.181 290.573 L 183.741 290.573 L 183.741 276.413 L 185.181 276.413 L 185.181 290.573 Z M 187.341 290.573 L 185.901 290.573 L 185.901 276.413 L 187.341 276.413 L 187.341 290.573 Z M 190.941 290.573 L 188.061 290.573 L 188.061 276.413 L 190.941 276.413 L 190.941 290.573 Z M 188.781 294.153 L 189.431 294.153 C 189.384 294.393 189.328 294.633 189.261 294.873 C 189.181 295.113 189.078 295.433 188.951 295.833 L 187.921 298.683 C 187.788 299.07 187.611 299.35 187.391 299.523 C 187.164 299.703 186.901 299.793 186.601 299.793 C 186.214 299.793 185.901 299.673 185.661 299.433 L 185.951 298.993 L 186.001 298.923 L 186.041 298.953 C 186.061 299.013 186.088 299.06 186.121 299.093 C 186.148 299.14 186.201 299.18 186.281 299.213 C 186.394 299.246 186.514 299.263 186.641 299.263 C 186.854 299.263 187.031 299.183 187.171 299.023 C 187.298 298.863 187.428 298.606 187.561 298.253 L 185.881 294.153 L 186.551 294.153 L 187.821 297.413 L 188.351 295.783 C 188.478 295.363 188.574 295.05 188.641 294.843 C 188.701 294.623 188.748 294.393 188.781 294.153 ZM 192.379 290.573 L 191.659 290.573 L 191.659 276.413 L 192.379 276.413 L 192.379 290.573 Z M 195.979 290.573 L 193.099 290.573 L 193.099 276.413 L 195.979 276.413 L 195.979 290.573 Z M 198.139 290.573 L 197.419 290.573 L 197.419 276.413 L 198.139 276.413 L 198.139 290.573 Z M 195.619 298.323 C 194.932 298.323 194.356 298.106 193.889 297.673 L 194.249 297.073 L 194.299 296.983 L 194.369 297.033 C 194.369 297.046 194.369 297.07 194.369 297.103 C 194.389 297.15 194.406 297.19 194.419 297.223 C 194.452 297.27 194.486 297.316 194.519 297.363 C 194.659 297.49 194.819 297.593 194.999 297.673 C 195.172 297.74 195.386 297.773 195.639 297.773 C 195.959 297.773 196.216 297.716 196.409 297.603 C 196.589 297.49 196.679 297.33 196.679 297.123 C 196.679 296.95 196.606 296.806 196.459 296.693 C 196.312 296.58 196.039 296.466 195.639 296.353 C 194.619 296.053 194.109 295.63 194.109 295.083 C 194.109 294.763 194.246 294.516 194.519 294.343 C 194.772 294.15 195.139 294.053 195.619 294.053 C 195.986 294.053 196.299 294.11 196.559 294.223 C 196.812 294.316 197.042 294.476 197.249 294.703 L 196.869 295.133 L 196.819 295.203 L 196.769 295.153 C 196.769 295.093 196.752 295.046 196.719 295.013 C 196.706 294.966 196.666 294.92 196.599 294.873 C 196.459 294.76 196.309 294.68 196.149 294.633 C 195.969 294.566 195.799 294.533 195.639 294.533 C 195.386 294.533 195.172 294.58 194.999 294.673 C 194.839 294.753 194.759 294.873 194.759 295.033 C 194.759 295.193 194.846 295.33 195.019 295.443 C 195.179 295.57 195.476 295.7 195.909 295.833 C 196.422 295.993 196.782 296.16 196.989 296.333 C 197.209 296.506 197.319 296.746 197.319 297.053 C 197.319 297.42 197.176 297.723 196.889 297.963 C 196.602 298.203 196.179 298.323 195.619 298.323 ZM 200.297 290.573 L 199.577 290.573 L 199.577 276.413 L 200.297 276.413 L 200.297 290.573 Z M 203.177 290.573 L 202.457 290.573 L 202.457 276.413 L 203.177 276.413 L 203.177 290.573 Z M 206.777 290.573 L 205.337 290.573 L 205.337 276.413 L 206.777 276.413 L 206.777 290.573 Z M 203.847 298.323 C 203.434 298.323 203.067 298.22 202.747 298.013 C 202.407 297.806 202.144 297.493 201.957 297.073 C 201.764 296.646 201.667 296.113 201.667 295.473 C 201.667 294.8 201.77 294.246 201.977 293.813 C 202.184 293.4 202.447 293.096 202.767 292.903 C 203.087 292.723 203.43 292.633 203.797 292.633 C 204.197 292.633 204.544 292.73 204.837 292.923 C 205.124 293.116 205.337 293.38 205.477 293.713 L 204.957 293.983 L 204.877 294.003 L 204.857 293.953 L 204.857 293.883 C 204.857 293.823 204.817 293.736 204.737 293.623 C 204.61 293.443 204.467 293.313 204.307 293.233 C 204.147 293.153 203.977 293.113 203.797 293.113 C 203.317 293.113 202.944 293.323 202.677 293.743 C 202.417 294.143 202.287 294.71 202.287 295.443 C 202.287 295.89 202.35 296.3 202.477 296.673 C 202.624 297.02 202.81 297.29 203.037 297.483 C 203.277 297.676 203.54 297.773 203.827 297.773 C 204.047 297.773 204.254 297.716 204.447 297.603 C 204.654 297.476 204.824 297.31 204.957 297.103 L 205.407 297.413 C 205.214 297.72 204.997 297.943 204.757 298.083 C 204.504 298.243 204.2 298.323 203.847 298.323 ZM 208.215 290.573 L 207.495 290.573 L 207.495 276.413 L 208.215 276.413 L 208.215 290.573 Z M 210.375 290.573 L 209.655 290.573 L 209.655 276.413 L 210.375 276.413 L 210.375 290.573 Z M 212.535 290.573 L 211.095 290.573 L 211.095 276.413 L 212.535 276.413 L 212.535 290.573 Z M 211.405 294.053 C 211.985 294.053 212.425 294.206 212.725 294.513 C 213.032 294.813 213.185 295.333 213.185 296.073 L 213.185 298.233 L 212.485 298.233 L 212.485 297.603 C 212.245 298.083 211.782 298.323 211.095 298.323 C 210.648 298.323 210.295 298.22 210.035 298.013 C 209.782 297.806 209.655 297.533 209.655 297.193 C 209.655 296.906 209.752 296.66 209.945 296.453 C 210.118 296.246 210.365 296.08 210.685 295.953 C 210.992 295.84 211.335 295.783 211.715 295.783 C 212.055 295.783 212.362 295.8 212.635 295.833 C 212.602 295.38 212.482 295.06 212.275 294.873 C 212.062 294.68 211.755 294.583 211.355 294.583 C 211.148 294.583 210.958 294.623 210.785 294.703 C 210.592 294.783 210.415 294.893 210.255 295.033 L 209.945 294.633 C 210.325 294.246 210.812 294.053 211.405 294.053 Z M 211.165 297.843 C 211.612 297.843 211.965 297.706 212.225 297.433 C 212.478 297.18 212.615 296.813 212.635 296.333 C 212.362 296.286 212.072 296.263 211.765 296.263 C 211.318 296.263 210.958 296.343 210.685 296.503 C 210.432 296.643 210.305 296.866 210.305 297.173 C 210.305 297.62 210.592 297.843 211.165 297.843 ZM 216.133 290.573 L 215.413 290.573 L 215.413 276.413 L 216.133 276.413 L 216.133 290.573 Z M 219.733 290.573 L 219.013 290.573 L 219.013 276.413 L 219.733 276.413 L 219.733 290.573 Z M 222.613 290.573 L 221.173 290.573 L 221.173 276.413 L 222.613 276.413 L 222.613 290.573 Z M 219.233 298.323 C 218.94 298.323 218.666 298.236 218.413 298.063 C 218.16 297.903 217.953 297.663 217.793 297.343 C 217.633 297.003 217.553 296.603 217.553 296.143 C 217.553 295.676 217.633 295.283 217.793 294.963 C 217.966 294.663 218.18 294.433 218.433 294.273 C 218.693 294.126 218.966 294.053 219.253 294.053 C 219.54 294.053 219.78 294.11 219.973 294.223 C 220.18 294.35 220.34 294.526 220.453 294.753 L 220.453 292.303 L 221.123 292.303 L 221.123 292.353 C 221.09 292.4 221.066 292.44 221.053 292.473 C 221.053 292.52 221.053 292.59 221.053 292.683 L 221.053 297.603 C 221.053 297.75 221.06 297.863 221.073 297.943 C 221.073 298.036 221.1 298.133 221.153 298.233 L 220.523 298.233 C 220.476 298.133 220.446 298.036 220.433 297.943 C 220.433 297.863 220.433 297.75 220.433 297.603 C 220.3 297.83 220.13 298.006 219.923 298.133 C 219.716 298.26 219.486 298.323 219.233 298.323 Z M 219.323 297.753 C 219.69 297.753 219.963 297.606 220.143 297.313 C 220.316 297.026 220.403 296.643 220.403 296.163 C 220.403 295.683 220.306 295.3 220.113 295.013 C 219.926 294.726 219.646 294.583 219.273 294.583 C 218.926 294.583 218.656 294.71 218.463 294.963 C 218.27 295.236 218.173 295.596 218.173 296.043 C 218.173 296.57 218.27 296.986 218.463 297.293 C 218.67 297.6 218.956 297.753 219.323 297.753 ZM 224.051 290.573 L 223.331 290.573 L 223.331 276.413 L 224.051 276.413 L 224.051 290.573 Z M 226.211 290.573 L 224.771 290.573 L 224.771 276.413 L 226.211 276.413 L 226.211 290.573 Z M 228.371 290.573 L 227.651 290.573 L 227.651 276.413 L 228.371 276.413 L 228.371 290.573 Z M 227.481 298.323 C 226.874 298.323 226.394 298.14 226.041 297.773 C 225.674 297.406 225.491 296.886 225.491 296.213 C 225.491 295.766 225.578 295.373 225.751 295.033 C 225.911 294.713 226.138 294.473 226.431 294.313 C 226.698 294.14 227.008 294.053 227.361 294.053 C 227.861 294.053 228.261 294.213 228.561 294.533 C 228.868 294.866 229.021 295.353 229.021 295.993 C 229.021 296.06 229.021 296.156 229.021 296.283 L 226.111 296.283 C 226.131 296.783 226.268 297.16 226.521 297.413 C 226.781 297.666 227.111 297.793 227.511 297.793 C 227.938 297.793 228.288 297.643 228.561 297.343 L 228.921 297.703 C 228.568 298.116 228.088 298.323 227.481 298.323 Z M 226.141 295.783 L 228.371 295.783 C 228.371 295.396 228.274 295.093 228.081 294.873 C 227.888 294.646 227.631 294.533 227.311 294.533 C 227.024 294.533 226.771 294.636 226.551 294.843 C 226.324 295.05 226.188 295.363 226.141 295.783 ZM 234.129 290.573 L 231.249 290.573 L 231.249 276.413 L 234.129 276.413 L 234.129 290.573 Z M 237.009 290.573 L 234.849 290.573 L 234.849 276.413 L 237.009 276.413 L 237.009 290.573 Z M 238.449 290.573 L 237.729 290.573 L 237.729 276.413 L 238.449 276.413 L 238.449 290.573 Z M 233.309 298.233 L 233.309 294.153 L 233.909 294.153 L 233.909 294.553 C 234.009 294.413 234.129 294.293 234.269 294.193 C 234.416 294.1 234.569 294.053 234.729 294.053 C 234.902 294.053 235.062 294.11 235.209 294.223 C 235.336 294.336 235.416 294.48 235.449 294.653 C 235.529 294.48 235.656 294.336 235.829 294.223 C 235.989 294.11 236.176 294.053 236.389 294.053 C 236.642 294.053 236.842 294.15 236.989 294.343 C 237.116 294.536 237.169 294.793 237.149 295.113 L 237.149 298.233 L 236.579 298.233 L 236.579 295.353 C 236.579 295 236.546 294.773 236.479 294.673 C 236.419 294.58 236.322 294.533 236.189 294.533 C 236.082 294.533 235.979 294.58 235.879 294.673 C 235.786 294.773 235.706 294.903 235.639 295.063 C 235.579 295.223 235.549 295.383 235.549 295.543 L 235.549 298.233 L 234.949 298.233 L 234.949 295.393 C 234.949 295.06 234.916 294.836 234.849 294.723 C 234.782 294.596 234.662 294.533 234.489 294.533 C 234.409 294.533 234.322 294.573 234.229 294.653 C 234.129 294.733 234.049 294.853 233.989 295.013 C 233.936 295.16 233.909 295.326 233.909 295.513 L 233.909 298.233 L 233.309 298.233 ZM 240.607 290.573 L 239.167 290.573 L 239.167 276.413 L 240.607 276.413 L 240.607 290.573 Z M 242.767 290.573 L 241.327 290.573 L 241.327 276.413 L 242.767 276.413 L 242.767 290.573 Z M 246.367 290.573 L 243.487 290.573 L 243.487 276.413 L 246.367 276.413 L 246.367 290.573 Z M 244.207 294.153 L 244.857 294.153 C 244.81 294.393 244.754 294.633 244.687 294.873 C 244.607 295.113 244.504 295.433 244.377 295.833 L 243.347 298.683 C 243.214 299.07 243.037 299.35 242.817 299.523 C 242.59 299.703 242.327 299.793 242.027 299.793 C 241.64 299.793 241.327 299.673 241.087 299.433 L 241.377 298.993 L 241.427 298.923 L 241.467 298.953 C 241.487 299.013 241.514 299.06 241.547 299.093 C 241.574 299.14 241.627 299.18 241.707 299.213 C 241.82 299.246 241.94 299.263 242.067 299.263 C 242.28 299.263 242.457 299.183 242.597 299.023 C 242.724 298.863 242.854 298.606 242.987 298.253 L 241.307 294.153 L 241.977 294.153 L 243.247 297.413 L 243.777 295.783 C 243.904 295.363 244 295.05 244.067 294.843 C 244.127 294.623 244.174 294.393 244.207 294.153 Z" transform="matrix(0.6279450058937073, 0.0742410197854042, -0.13197700679302216, 1.11627995967865, -65.84124755859375, -320.8367004394531)" style="white-space: pre;"/>
    </symbol>
  </defs>
  <g transform="matrix(0.9999960064888, -0.005205000285059214, 0.005213000345975161, 1.0015380382537842, -1.136883020401001, 0.6692320108413696)">
    <line style="stroke: rgb(0, 0, 0); stroke-width: 2.5;" x1="159.465" y1="87.424" x2="326.251" y2="105.91" transform="matrix(0.995246, -0.097246, 0.097546, 0.995246, -8.274874, 24.076543)"/>
    <line style="stroke: rgb(0, 0, 0); stroke-width: 2.5;" x1="155.695" y1="319.231" x2="324.657" y2="337.416" transform="matrix(0.99526, -0.097247, 0.097247, 0.99526, -30.790177, 24.912621)"/>
    <line style="stroke: rgb(0, 0, 0); stroke-width: 2.5;" x1="150.022" y1="329.206" x2="321.351" y2="347.737" transform="matrix(0.995246, -0.097246, 0.097546, 0.995246, -31.896048, 24.528744)"/>
    <line style="stroke: rgb(0, 0, 0); stroke-width: 2.5;" x1="326.101" y1="331.709" x2="320.581" y2="339.686" transform="matrix(0.99526, -0.097247, 0.097247, 0.99526, -31.113094, 33.035133)"/>
    <line style="stroke: rgb(0, 0, 0); stroke-width: 2.5;" x1="314.002" y1="331.38" x2="337.479" y2="97.183" transform="matrix(0.995246, -0.097246, 0.097546, 0.995246, -19.353687, 32.695752)"/>
    <line style="stroke: rgb(0, 0, 0); stroke-width: 0.5;" x1="154.963" y1="321.692" x2="323.925" y2="339.877" transform="matrix(0.99526, -0.097247, 0.097247, 0.99526, -31.032891, 24.853029)"/>
    <line style="stroke: rgb(0, 0, 0); stroke-width: 0.5;" x1="155.247" y1="325.332" x2="324.209" y2="343.517" transform="matrix(0.99526, -0.097247, 0.097247, 0.99526, -31.385526, 24.8979)"/>
    <line style="stroke: rgb(0, 0, 0); stroke-width: 0.5;" x1="153.545" y1="327.105" x2="322.507" y2="345.29" transform="matrix(0.99526, -0.097247, 0.097247, 0.99526, -31.566092, 24.740858)"/>
    <line style="stroke: rgb(0, 0, 0); stroke-width: 0.8;" x1="177.841" y1="106.916" x2="168.595" y2="199.806" transform="matrix(0.99526, -0.097247, 0.097247, 0.99526, -14.092905, 17.571839)"/>
    <line style="stroke: rgb(0, 0, 0); stroke-width: 0.8;" x1="315.462" y1="108.598" x2="306.216" y2="201.435" transform="matrix(0.99526, -0.097247, 0.097247, 0.99526, -13.601593, 30.962879)"/>
    <line style="stroke: rgb(0, 0, 0); stroke-width: 0.8;" x1="173.256" y1="100.207" x2="310.221" y2="115.441" transform="matrix(0.99526, -0.097247, 0.097247, 0.99526, -9.339795, 24.01942)"/>
    <line style="stroke: rgb(0, 0, 0); stroke-width: 0.8;" x1="173.347" y1="193.155" x2="310.734" y2="208.389" transform="matrix(0.99526, -0.097247, 0.097247, 0.99526, -18.377288, 24.489342)"/>
    <path d="M 145.947 329.81 L 130.767 328.217 L 152.992 116.294 L 170.36 97.031 Z" transform="matrix(0.99526, -0.097247, 0.097247, 0.99526, -20.040919, 15.653442)"/>
    <ellipse transform="matrix(-0.673572, 0.739121, -0.739128, -0.673563, 299.393751, 363.729166)" cx="76.853" cy="132.973" rx="7.805" ry="7.914"/>
    <line style="stroke: rgb(0, 0, 0); stroke-width: 2;" x1="184.571" y1="113.327" x2="299.374" y2="125.297" transform="matrix(0.99526, -0.097247, 0.097247, 0.99526, -10.45586, 24.096628)"/>
    <line style="stroke: rgb(0, 0, 0); stroke-width: 0.75;" x1="273.571" y1="120.152" x2="270.084" y2="156.533" transform="matrix(0.99526, -0.097247, 0.097247, 0.99526, -12.165005, 27.09011)"/>
    <line style="stroke: rgb(0, 0, 0); stroke-width: 0.75;" x1="250.443" y1="119.81" x2="246.956" y2="156.19" transform="matrix(0.99526, -0.097247, 0.097247, 0.99526, -12.241329, 24.839385)"/>
    <line style="stroke: rgb(0, 0, 0); stroke-width: 0.75;" x1="215.335" y1="115.574" x2="211.848" y2="151.954" transform="matrix(0.83426, 0.551371, -0.551371, 0.83426, 109.154183, -95.598123)"/>
    <path d="M 188.066 154.195 C 188.378 149.335 192.579 145.648 197.448 145.961 C 202.318 146.274 206.012 150.469 205.699 155.329 C 205.387 160.19 201.186 163.876 196.316 163.563 C 191.447 163.25 187.753 159.056 188.066 154.195 Z M 196.456 161.733 C 200.442 161.99 203.878 158.998 204.132 155.052 C 204.386 151.106 201.361 147.699 197.375 147.443 C 193.39 147.187 189.954 150.178 189.7 154.124 C 189.446 158.07 192.471 161.477 196.456 161.733 Z" transform="matrix(0.99526, -0.097247, 0.097247, 0.99526, -14.116964, 19.879752)"/>
    <path d="M 239.761 164.251 C 240.073 159.391 244.274 155.704 249.143 156.017 C 254.013 156.33 257.707 160.525 257.394 165.385 C 257.082 170.246 252.881 173.932 248.011 173.619 C 243.142 173.306 239.448 169.112 239.761 164.251 Z M 248.151 171.789 C 252.137 172.046 255.573 169.054 255.827 165.108 C 256.081 161.162 253.056 157.755 249.07 157.499 C 245.085 157.243 241.649 160.234 241.395 164.18 C 241.141 168.126 244.166 171.533 248.151 171.789 Z" transform="matrix(0.99526, -0.097247, 0.097247, 0.99526, -14.849879, 24.95463)"/>
    <path d="M 263.202 164.768 C 263.514 159.908 267.715 156.221 272.584 156.534 C 277.454 156.847 281.148 161.042 280.835 165.902 C 280.523 170.763 276.322 174.449 271.452 174.136 C 266.583 173.823 262.889 169.629 263.202 164.768 Z M 271.592 172.306 C 275.578 172.563 279.014 169.571 279.268 165.625 C 279.522 161.679 276.497 158.272 272.511 158.016 C 268.526 157.76 265.09 160.751 264.836 164.697 C 264.582 168.643 267.607 172.05 271.592 172.306 Z" transform="matrix(0.99526, -0.097247, 0.097247, 0.99526, -14.789052, 27.23665)"/>
    <path style="stroke: rgb(0, 0, 0); fill-opacity: 0;" d="M 206.407 157.713 C 212.146 162.979 219.639 165.544 228.888 165.409" transform="matrix(0.99526, -0.097247, 0.097247, 0.99526, -14.679993, 21.931353)"/>
    <path d="M 113.477 85.695 L 115.119 90.415 L 111.836 90.415 L 113.477 85.695 Z" transform="matrix(0.082876, 0.996565, -0.996562, 0.082873, 309.735288, 43.643802)" bx:shape="triangle 111.836 85.695 3.283 4.72 0.5 0 1@8f57285f"/>
    <use width="52.851600646972656" height="32.32080078125" transform="matrix(1.329729, -0.129929, 0.127298, 1.302804, 246.407669, 289.595154)" xlink:href="#symbol-0"/>
    <path d="M 186.993 247.934 L 194.301 232.699 C 192.445 232.415 190.867 232.029 189.568 231.54 L 189.568 230.189 L 201.98 230.189 L 201.98 231.54 C 201.5 231.72 200.929 231.913 200.263 232.12 C 199.583 232.313 198.818 232.506 197.966 232.699 L 187.062 253.321 C 186.273 254.981 185.492 256.454 184.719 257.742 C 183.946 259.017 183.148 260.059 182.329 260.87 C 181.51 261.668 180.636 262.247 179.708 262.608 C 178.78 262.956 177.775 263.039 176.692 262.859 C 176.476 262.575 176.267 262.222 176.065 261.797 C 175.864 261.359 175.687 260.909 175.532 260.446 C 175.376 259.982 175.246 259.525 175.137 259.075 C 175.028 258.636 174.959 258.231 174.929 257.858 L 175.764 256.7 L 181.494 257.955 C 181.633 257.825 181.789 257.64 181.958 257.395 C 182.128 257.15 182.299 256.873 182.469 256.565 C 182.638 256.256 182.793 255.947 182.933 255.638 C 183.088 255.329 183.204 255.045 183.281 254.788 L 169.407 232.699 C 168.695 232.545 167.992 232.371 167.296 232.178 C 166.584 231.998 165.897 231.786 165.231 231.54 L 165.231 230.189 L 179.87 230.189 L 179.87 231.54 C 179.237 231.747 178.541 231.952 177.782 232.158 C 177.024 232.365 176.221 232.545 175.369 232.699 L 184.603 248.03 L 185.786 251.004 L 185.879 251.004 L 186.993 247.934 Z M 211.227 270.737 L 211.227 271.896 L 198.862 271.896 L 198.862 270.737 C 200.131 270.249 201.36 269.874 202.551 269.617 L 202.551 242.141 L 198.862 241.774 L 198.862 240.577 C 200.052 240.139 201.275 239.791 202.527 239.534 C 203.764 239.264 204.98 239.052 206.17 238.897 L 207.562 238.897 L 207.562 244.091 L 207.608 244.091 C 208.351 242.521 209.395 241.259 210.74 240.307 C 212.069 239.366 213.809 238.897 215.96 238.897 C 219.271 238.897 221.83 239.81 223.639 241.639 C 225.465 243.454 226.377 246.422 226.377 250.54 C 226.377 252.485 226.068 254.242 225.449 255.812 C 224.846 257.395 223.98 258.727 222.851 259.808 C 221.707 260.89 220.329 261.72 218.721 262.299 C 217.113 262.892 215.317 263.187 213.338 263.187 C 211.977 263.187 210.903 263.116 210.114 262.975 C 209.341 262.834 208.49 262.595 207.562 262.261 L 207.562 269.617 C 208.149 269.681 208.745 269.797 209.348 269.965 C 209.935 270.144 210.561 270.403 211.227 270.737 Z M 214.174 241.774 C 212.364 241.774 210.919 242.251 209.835 243.203 C 208.768 244.168 208.009 245.481 207.562 247.142 L 207.562 260.117 C 208.228 260.465 208.977 260.722 209.812 260.89 C 210.647 261.058 211.731 261.141 213.06 261.141 C 214.297 261.141 215.403 260.876 216.378 260.349 C 217.368 259.833 218.204 259.094 218.883 258.129 C 219.579 257.177 220.113 256.057 220.484 254.769 C 220.855 253.494 221.041 252.085 221.041 250.54 C 221.041 249.266 220.918 248.094 220.67 247.026 C 220.421 245.97 220.036 245.043 219.51 244.246 C 218.969 243.46 218.257 242.855 217.375 242.431 C 216.51 241.992 215.443 241.774 214.174 241.774 Z M 229.773 251.042 C 229.773 249.098 230.082 247.374 230.701 245.868 C 231.318 244.375 232.2 243.112 233.346 242.083 C 234.49 241.04 235.875 240.249 237.499 239.708 C 239.107 239.167 240.893 238.897 242.858 238.897 C 245.162 238.897 247.15 239.193 248.821 239.785 C 250.491 240.365 251.86 241.189 252.927 242.257 C 253.978 243.325 254.751 244.599 255.247 246.08 C 255.757 247.561 256.013 249.214 256.013 251.042 C 256.013 254.929 254.82 257.93 252.44 260.04 C 250.073 262.139 246.879 263.187 242.858 263.187 C 240.631 263.187 238.705 262.898 237.081 262.319 C 235.441 261.753 234.089 260.934 233.021 259.866 C 231.938 258.799 231.126 257.516 230.585 256.024 C 230.043 254.531 229.773 252.871 229.773 251.042 Z M 235.133 251.042 C 235.133 252.432 235.286 253.745 235.597 254.981 C 235.921 256.217 236.423 257.292 237.105 258.206 C 237.784 259.119 238.682 259.833 239.796 260.349 C 240.909 260.876 242.246 261.141 243.809 261.141 C 245.818 261.141 247.466 260.324 248.751 258.689 C 250.018 257.053 250.653 254.504 250.653 251.042 C 250.653 249.627 250.498 248.306 250.189 247.084 C 249.878 245.862 249.384 244.792 248.705 243.879 C 248.039 242.965 247.187 242.251 246.153 241.735 C 245.116 241.208 243.87 240.944 242.417 240.944 C 240.237 240.944 238.473 241.761 237.128 243.396 C 235.796 245.031 235.133 247.58 235.133 251.042 Z M 275.227 240.654 L 275.227 239.457 L 285.968 239.457 L 285.968 240.654 C 285.597 240.911 285.11 241.131 284.507 241.311 C 283.887 241.49 283.129 241.71 282.233 241.967 C 280.98 243.228 279.649 244.51 278.243 245.81 C 276.818 247.109 275.334 248.403 273.788 249.691 C 274.591 250.438 275.45 251.26 276.364 252.162 C 277.275 253.05 278.196 253.977 279.124 254.943 C 280.052 255.895 280.98 256.835 281.908 257.762 C 282.836 258.689 283.748 259.552 284.646 260.349 L 287.244 261.469 L 287.244 262.628 L 280.748 262.628 L 278.962 261.565 C 277.292 259.891 275.767 258.225 274.392 256.565 C 273.014 254.89 271.622 253.249 270.216 251.641 L 267.988 251.641 L 267.988 260.349 C 268.731 260.504 269.411 260.672 270.03 260.851 C 270.633 261.019 271.158 261.224 271.608 261.469 L 271.608 262.628 L 259.312 262.628 L 259.312 261.469 C 260.3 260.98 261.523 260.606 262.977 260.349 L 262.977 241.774 C 261.678 241.556 260.455 241.181 259.312 240.654 L 259.312 239.457 L 270.726 239.457 L 270.726 240.654 C 270.355 240.872 269.951 241.079 269.52 241.272 C 269.086 241.452 268.575 241.62 267.988 241.774 L 267.988 250.444 L 270.54 249.98 C 272.025 248.551 273.44 247.219 274.786 245.983 C 276.115 244.748 277.361 243.41 278.521 241.967 C 277.886 241.749 277.299 241.537 276.758 241.33 C 276.215 241.137 275.705 240.911 275.227 240.654 Z M 288.272 240.654 L 288.272 239.457 L 300.058 239.457 L 300.058 240.654 C 299.656 240.847 299.185 241.035 298.643 241.214 C 298.102 241.407 297.459 241.594 296.717 241.774 L 296.717 254.479 L 296.114 258.785 L 296.392 258.785 L 298.573 255.309 L 310.475 239.457 L 317.991 239.457 L 317.991 240.654 C 316.801 241.22 315.579 241.594 314.326 241.774 L 314.326 260.349 C 315.022 260.504 315.688 260.672 316.321 260.851 C 316.957 261.019 317.513 261.224 317.991 261.469 L 317.991 262.628 L 306.183 262.628 L 306.183 261.469 C 307.236 260.98 308.349 260.606 309.523 260.349 L 309.523 247.103 L 310.08 243.435 L 309.802 243.435 L 307.691 246.91 L 295.882 262.628 L 288.272 262.628 L 288.272 261.469 C 288.892 261.224 289.502 261.019 290.105 260.851 C 290.694 260.672 291.304 260.504 291.938 260.349 L 291.938 241.774 C 290.486 241.594 289.263 241.22 288.272 240.654 Z" style="fill: rgb(51, 51, 51); white-space: pre;" transform="matrix(0.999992, 0.004088, -0.004088, 0.999992, 1.028322, -0.985647)"/>
    <polyline style="fill: rgb(216, 216, 216); stroke: rgb(0, 0, 0);" points="156.286 97.627"/>
    <polyline style="fill: rgb(216, 216, 216); stroke: rgb(0, 0, 0);" points="155.943 98.163"/>
    <polygon style="fill: rgb(216, 216, 216); stroke: rgb(0, 0, 0);" points="155.943 97.919"/>
    <path style="fill: rgb(216, 216, 216); stroke: rgb(0, 0, 0);" d="M 244.591 161.824"/>
    <line style="stroke: rgb(0, 0, 0); stroke-width: 0.5;" x1="155.633" y1="323.505" x2="324.595" y2="341.69" transform="matrix(0.99526, -0.097247, 0.097247, 0.99526, -31.206028, 24.926777)"/>
  </g>
</svg>