<?xml version="1.0" encoding="utf-8"?>
<svg viewBox="0 0 500 500" width="500" height="500" xmlns="http://www.w3.org/2000/svg">
  <path d="M 210.067 235.031 H 281.442 V 267.952 H 210.067 V 235.031 Z" style="fill: rgb(255, 255, 255); stroke: rgb(48, 64, 110); stroke-miterlimit: 1; stroke-width: 0px;" class="background-left"/>
  <path d="M 229.633 241.517 C 231.126 241.517 232.42 241.764 233.513 242.257 C 234.606 242.757 235.45 243.464 236.043 244.377 C 236.636 245.284 236.933 246.364 236.933 247.617 C 236.933 248.844 236.636 249.917 236.043 250.837 C 235.45 251.757 234.606 252.464 233.513 252.957 C 232.42 253.444 231.126 253.687 229.633 253.687 L 226.253 253.687 L 226.253 258.317 L 222.363 258.317 L 222.363 241.517 L 229.633 241.517 Z M 229.423 250.517 C 230.59 250.517 231.476 250.264 232.083 249.757 C 232.69 249.257 232.993 248.544 232.993 247.617 C 232.993 246.67 232.69 245.944 232.083 245.437 C 231.476 244.937 230.59 244.687 229.423 244.687 L 226.253 244.687 L 226.253 250.517 L 229.423 250.517 ZM 247.521 245.217 C 249.121 245.217 250.411 245.697 251.391 246.657 C 252.377 247.617 252.871 249.04 252.871 250.927 L 252.871 258.317 L 249.121 258.317 L 249.121 251.497 C 249.121 250.477 248.897 249.714 248.451 249.207 C 248.004 248.707 247.357 248.457 246.511 248.457 C 245.564 248.457 244.811 248.747 244.251 249.327 C 243.691 249.914 243.411 250.784 243.411 251.937 L 243.411 258.317 L 239.671 258.317 L 239.671 240.507 L 243.411 240.507 L 243.411 246.747 C 243.911 246.254 244.511 245.874 245.211 245.607 C 245.917 245.347 246.687 245.217 247.521 245.217 ZM 265.225 245.407 L 268.825 245.407 L 262.995 259.107 C 262.401 260.594 261.671 261.644 260.805 262.257 C 259.931 262.864 258.878 263.167 257.645 263.167 C 256.971 263.167 256.308 263.064 255.655 262.857 C 254.995 262.644 254.458 262.354 254.045 261.987 L 255.415 259.327 C 255.701 259.58 256.031 259.78 256.405 259.927 C 256.785 260.067 257.158 260.137 257.525 260.137 C 258.038 260.137 258.455 260.014 258.775 259.767 C 259.095 259.52 259.381 259.11 259.635 258.537 L 259.685 258.417 L 254.095 245.407 L 257.955 245.407 L 261.585 254.167 L 265.225 245.407 ZM 274.515 258.507 C 273.441 258.507 272.395 258.377 271.375 258.117 C 270.348 257.85 269.531 257.517 268.925 257.117 L 270.175 254.427 C 270.748 254.794 271.445 255.094 272.265 255.327 C 273.078 255.56 273.878 255.677 274.665 255.677 C 276.245 255.677 277.035 255.284 277.035 254.497 C 277.035 254.13 276.818 253.867 276.385 253.707 C 275.958 253.547 275.295 253.41 274.395 253.297 C 273.341 253.137 272.471 252.954 271.785 252.747 C 271.091 252.54 270.495 252.174 269.995 251.647 C 269.488 251.12 269.235 250.367 269.235 249.387 C 269.235 248.574 269.471 247.85 269.945 247.217 C 270.418 246.584 271.105 246.09 272.005 245.737 C 272.911 245.39 273.981 245.217 275.215 245.217 C 276.128 245.217 277.035 245.317 277.935 245.517 C 278.841 245.717 279.591 245.99 280.185 246.337 L 278.935 249.007 C 277.795 248.367 276.555 248.047 275.215 248.047 C 274.415 248.047 273.815 248.157 273.415 248.377 C 273.015 248.604 272.815 248.894 272.815 249.247 C 272.815 249.647 273.031 249.927 273.465 250.087 C 273.891 250.247 274.578 250.397 275.525 250.537 C 276.578 250.717 277.441 250.907 278.115 251.107 C 278.788 251.307 279.371 251.67 279.865 252.197 C 280.365 252.724 280.615 253.46 280.615 254.407 C 280.615 255.207 280.375 255.917 279.895 256.537 C 279.415 257.164 278.715 257.65 277.795 257.997 C 276.875 258.337 275.781 258.507 274.515 258.507 Z" transform="matrix(1.067037, 0, 0, 1.048338, -22.382347, -11.443071)" style="fill: rgb(48, 64, 110); stroke: rgb(48, 64, 110); stroke-miterlimit: 1; stroke-width: 0px; white-space: pre;" class="text-left"/>
  <path d="M 281.442 235.031 H 390.237 V 267.952 H 281.442 V 235.031 Z" style="fill: rgb(48, 64, 110); stroke: rgb(48, 64, 110); stroke-width: 0px;" class="background-right"/>
  <path d="M 291.19 258.511 C 289.51 258.511 287.993 258.141 286.64 257.401 C 285.293 256.654 284.233 255.628 283.46 254.321 C 282.693 253.021 282.31 251.554 282.31 249.921 C 282.31 248.288 282.693 246.821 283.46 245.521 C 284.233 244.214 285.3 243.188 286.66 242.441 C 288.02 241.701 289.54 241.331 291.22 241.331 C 292.527 241.331 293.727 241.551 294.82 241.991 C 295.907 242.431 296.833 243.081 297.6 243.941 L 296.04 245.461 C 294.773 244.128 293.197 243.461 291.31 243.461 C 290.063 243.461 288.937 243.741 287.93 244.301 C 286.923 244.861 286.133 245.634 285.56 246.621 C 284.993 247.608 284.71 248.708 284.71 249.921 C 284.71 251.134 284.993 252.234 285.56 253.221 C 286.133 254.208 286.923 254.981 287.93 255.541 C 288.937 256.101 290.063 256.381 291.31 256.381 C 293.183 256.381 294.76 255.708 296.04 254.361 L 297.6 255.871 C 296.833 256.738 295.9 257.394 294.8 257.841 C 293.707 258.288 292.503 258.511 291.19 258.511 ZM 305.162 245.481 C 306.922 245.481 308.269 245.914 309.202 246.781 C 310.135 247.641 310.602 248.928 310.602 250.641 L 310.602 258.321 L 308.422 258.321 L 308.422 256.641 C 308.035 257.234 307.489 257.688 306.782 258.001 C 306.069 258.308 305.222 258.461 304.242 258.461 C 302.822 258.461 301.682 258.118 300.822 257.431 C 299.969 256.744 299.542 255.841 299.542 254.721 C 299.542 253.601 299.949 252.701 300.762 252.021 C 301.582 251.341 302.879 251.001 304.652 251.001 L 308.302 251.001 L 308.302 250.541 C 308.302 249.554 308.015 248.794 307.442 248.261 C 306.862 247.734 306.012 247.471 304.892 247.471 C 304.139 247.471 303.402 247.594 302.682 247.841 C 301.962 248.094 301.355 248.428 300.862 248.841 L 299.902 247.111 C 300.555 246.584 301.339 246.181 302.252 245.901 C 303.165 245.621 304.135 245.481 305.162 245.481 Z M 304.632 256.691 C 305.512 256.691 306.272 256.494 306.912 256.101 C 307.552 255.708 308.015 255.151 308.302 254.431 L 308.302 252.661 L 304.752 252.661 C 302.799 252.661 301.822 253.314 301.822 254.621 C 301.822 255.261 302.069 255.768 302.562 256.141 C 303.062 256.508 303.752 256.691 304.632 256.691 ZM 324.644 240.511 L 326.944 240.511 L 326.944 258.321 L 324.744 258.321 L 324.744 256.301 C 324.231 257.008 323.581 257.544 322.794 257.911 C 322.014 258.278 321.151 258.461 320.204 258.461 C 318.971 258.461 317.868 258.191 316.894 257.651 C 315.914 257.104 315.151 256.341 314.604 255.361 C 314.051 254.374 313.774 253.241 313.774 251.961 C 313.774 250.681 314.051 249.554 314.604 248.581 C 315.151 247.601 315.914 246.841 316.894 246.301 C 317.868 245.754 318.971 245.481 320.204 245.481 C 321.118 245.481 321.958 245.654 322.724 246.001 C 323.491 246.341 324.131 246.848 324.644 247.521 L 324.644 240.511 Z M 320.394 256.451 C 321.194 256.451 321.924 256.261 322.584 255.881 C 323.238 255.508 323.748 254.981 324.114 254.301 C 324.481 253.621 324.664 252.841 324.664 251.961 C 324.664 251.081 324.481 250.301 324.114 249.621 C 323.748 248.941 323.238 248.418 322.584 248.051 C 321.924 247.684 321.194 247.501 320.394 247.501 C 319.581 247.501 318.851 247.684 318.204 248.051 C 317.551 248.418 317.038 248.941 316.664 249.621 C 316.291 250.301 316.104 251.081 316.104 251.961 C 316.104 252.841 316.291 253.621 316.664 254.301 C 317.038 254.981 317.551 255.508 318.204 255.881 C 318.851 256.261 319.581 256.451 320.394 256.451 ZM 342.81 252.031 C 342.81 252.211 342.794 252.444 342.76 252.731 L 332.44 252.731 C 332.587 253.851 333.08 254.751 333.92 255.431 C 334.76 256.111 335.804 256.451 337.05 256.451 C 338.57 256.451 339.794 255.938 340.72 254.911 L 341.99 256.401 C 341.417 257.074 340.704 257.588 339.85 257.941 C 338.99 258.288 338.034 258.461 336.98 258.461 C 335.634 258.461 334.44 258.188 333.4 257.641 C 332.36 257.088 331.557 256.314 330.99 255.321 C 330.424 254.328 330.14 253.208 330.14 251.961 C 330.14 250.728 330.417 249.614 330.97 248.621 C 331.517 247.634 332.277 246.864 333.25 246.311 C 334.217 245.758 335.307 245.481 336.52 245.481 C 337.74 245.481 338.824 245.758 339.77 246.311 C 340.724 246.864 341.47 247.634 342.01 248.621 C 342.544 249.614 342.81 250.751 342.81 252.031 Z M 336.52 247.421 C 335.42 247.421 334.497 247.758 333.75 248.431 C 333.004 249.104 332.567 249.984 332.44 251.071 L 340.6 251.071 C 340.474 249.998 340.037 249.121 339.29 248.441 C 338.55 247.761 337.627 247.421 336.52 247.421 ZM 361.917 245.481 C 363.517 245.481 364.783 245.944 365.717 246.871 C 366.65 247.798 367.117 249.174 367.117 251.001 L 367.117 258.321 L 364.817 258.321 L 364.817 251.261 C 364.817 250.034 364.533 249.108 363.967 248.481 C 363.4 247.854 362.587 247.541 361.527 247.541 C 360.36 247.541 359.433 247.908 358.747 248.641 C 358.06 249.368 357.717 250.411 357.717 251.771 L 357.717 258.321 L 355.407 258.321 L 355.407 251.261 C 355.407 250.034 355.123 249.108 354.557 248.481 C 353.99 247.854 353.177 247.541 352.117 247.541 C 350.95 247.541 350.023 247.908 349.337 248.641 C 348.65 249.368 348.307 250.411 348.307 251.771 L 348.307 258.321 L 345.997 258.321 L 345.997 245.601 L 348.207 245.601 L 348.207 247.501 C 348.673 246.841 349.283 246.341 350.037 246.001 C 350.783 245.654 351.637 245.481 352.597 245.481 C 353.59 245.481 354.47 245.681 355.237 246.081 C 356.01 246.481 356.603 247.064 357.017 247.831 C 357.497 247.098 358.163 246.521 359.017 246.101 C 359.877 245.688 360.843 245.481 361.917 245.481 ZM 380.122 245.601 L 382.382 245.601 L 376.212 259.591 C 375.672 260.891 375.035 261.804 374.302 262.331 C 373.575 262.858 372.702 263.121 371.682 263.121 C 371.055 263.121 370.449 263.021 369.862 262.821 C 369.282 262.621 368.799 262.328 368.412 261.941 L 369.402 260.221 C 370.055 260.841 370.815 261.151 371.682 261.151 C 372.242 261.151 372.709 261.004 373.082 260.711 C 373.455 260.411 373.795 259.901 374.102 259.181 L 374.512 258.301 L 368.892 245.601 L 371.292 245.601 L 375.732 255.781 L 380.122 245.601 Z" transform="matrix(0.971107, 0, 0, 1.001598, 13.352536, 1.039761)" style="fill: rgb(255, 255, 255); stroke-width: 0.4px; white-space: pre;"/>
  <rect x="161.988" y="161.701" width="176.276" height="23.755" style="fill: rgb(216, 216, 216);"/>
  <path d="M 229.633 241.517 C 231.126 241.517 232.42 241.764 233.513 242.257 C 234.606 242.757 235.45 243.464 236.043 244.377 C 236.636 245.284 236.933 246.364 236.933 247.617 C 236.933 248.844 236.636 249.917 236.043 250.837 C 235.45 251.757 234.606 252.464 233.513 252.957 C 232.42 253.444 231.126 253.687 229.633 253.687 L 226.253 253.687 L 226.253 258.317 L 222.363 258.317 L 222.363 241.517 L 229.633 241.517 Z M 229.423 250.517 C 230.59 250.517 231.476 250.264 232.083 249.757 C 232.69 249.257 232.993 248.544 232.993 247.617 C 232.993 246.67 232.69 245.944 232.083 245.437 C 231.476 244.937 230.59 244.687 229.423 244.687 L 226.253 244.687 L 226.253 250.517 L 229.423 250.517 ZM 247.52 245.217 C 249.12 245.217 250.41 245.697 251.39 246.657 C 252.377 247.617 252.87 249.04 252.87 250.927 L 252.87 258.317 L 249.12 258.317 L 249.12 251.497 C 249.12 250.477 248.897 249.714 248.45 249.207 C 248.003 248.707 247.357 248.457 246.51 248.457 C 245.563 248.457 244.81 248.747 244.25 249.327 C 243.69 249.914 243.41 250.784 243.41 251.937 L 243.41 258.317 L 239.67 258.317 L 239.67 240.507 L 243.41 240.507 L 243.41 246.747 C 243.91 246.254 244.51 245.874 245.21 245.607 C 245.917 245.347 246.687 245.217 247.52 245.217 ZM 265.223 245.407 L 268.823 245.407 L 262.993 259.107 C 262.4 260.594 261.67 261.644 260.803 262.257 C 259.93 262.864 258.876 263.167 257.643 263.167 C 256.97 263.167 256.306 263.064 255.653 262.857 C 254.993 262.644 254.456 262.354 254.043 261.987 L 255.413 259.327 C 255.7 259.58 256.03 259.78 256.403 259.927 C 256.783 260.067 257.156 260.137 257.523 260.137 C 258.036 260.137 258.453 260.014 258.773 259.767 C 259.093 259.52 259.38 259.11 259.633 258.537 L 259.683 258.417 L 254.093 245.407 L 257.953 245.407 L 261.583 254.167 L 265.223 245.407 ZM 274.512 258.507 C 273.439 258.507 272.392 258.377 271.372 258.117 C 270.345 257.85 269.529 257.517 268.922 257.117 L 270.172 254.427 C 270.745 254.794 271.442 255.094 272.262 255.327 C 273.075 255.56 273.875 255.677 274.662 255.677 C 276.242 255.677 277.032 255.284 277.032 254.497 C 277.032 254.13 276.815 253.867 276.382 253.707 C 275.955 253.547 275.292 253.41 274.392 253.297 C 273.339 253.137 272.469 252.954 271.782 252.747 C 271.089 252.54 270.492 252.174 269.992 251.647 C 269.485 251.12 269.232 250.367 269.232 249.387 C 269.232 248.574 269.469 247.85 269.942 247.217 C 270.415 246.584 271.102 246.09 272.002 245.737 C 272.909 245.39 273.979 245.217 275.212 245.217 C 276.125 245.217 277.032 245.317 277.932 245.517 C 278.839 245.717 279.589 245.99 280.182 246.337 L 278.932 249.007 C 277.792 248.367 276.552 248.047 275.212 248.047 C 274.412 248.047 273.812 248.157 273.412 248.377 C 273.012 248.604 272.812 248.894 272.812 249.247 C 272.812 249.647 273.029 249.927 273.462 250.087 C 273.889 250.247 274.575 250.397 275.522 250.537 C 276.575 250.717 277.439 250.907 278.112 251.107 C 278.785 251.307 279.369 251.67 279.862 252.197 C 280.362 252.724 280.612 253.46 280.612 254.407 C 280.612 255.207 280.372 255.917 279.892 256.537 C 279.412 257.164 278.712 257.65 277.792 257.997 C 276.872 258.337 275.779 258.507 274.512 258.507 Z" transform="matrix(1.067037, 0, 0, 1.048338, -75.282013, -90.431915)" style="fill: rgb(48, 64, 110); stroke: rgb(48, 64, 110); stroke-miterlimit: 1; stroke-width: 0px; white-space: pre;"/>
  <path d="M 238.346 180.676 C 236.519 180.676 234.868 180.285 233.395 179.501 C 231.915 178.726 230.752 177.646 229.906 176.262 C 229.066 174.878 228.647 173.313 228.647 171.566 C 228.647 169.818 229.066 168.253 229.906 166.869 C 230.752 165.485 231.915 164.405 233.395 163.63 C 234.868 162.847 236.529 162.455 238.378 162.455 C 239.929 162.455 241.331 162.725 242.583 163.263 C 243.842 163.8 244.898 164.573 245.752 165.58 L 243.084 167.991 C 241.875 166.614 240.374 165.925 238.581 165.925 C 237.471 165.925 236.479 166.167 235.604 166.649 C 234.737 167.124 234.06 167.792 233.577 168.651 C 233.086 169.503 232.841 170.475 232.841 171.566 C 232.841 172.656 233.086 173.628 233.577 174.48 C 234.06 175.34 234.737 176.007 235.604 176.482 C 236.479 176.964 237.471 177.206 238.581 177.206 C 240.374 177.206 241.875 176.506 243.084 175.109 L 245.752 177.531 C 244.898 178.551 243.838 179.331 242.572 179.868 C 241.313 180.406 239.904 180.676 238.346 180.676 Z M 253.717 166.638 C 255.851 166.638 257.487 167.134 258.625 168.127 C 259.77 169.126 260.343 170.633 260.343 172.645 L 260.343 180.372 L 256.609 180.372 L 256.609 178.684 C 255.854 179.942 254.453 180.571 252.405 180.571 C 251.345 180.571 250.427 180.396 249.652 180.047 C 248.876 179.69 248.283 179.205 247.87 178.589 C 247.464 177.968 247.262 177.261 247.262 176.472 C 247.262 175.214 247.742 174.225 248.702 173.505 C 249.67 172.785 251.159 172.425 253.173 172.425 L 256.353 172.425 C 256.353 171.566 256.086 170.905 255.552 170.444 C 255.026 169.983 254.232 169.752 253.173 169.752 C 252.44 169.752 251.719 169.867 251.007 170.098 C 250.303 170.321 249.702 170.625 249.204 171.01 L 247.774 168.274 C 248.521 167.75 249.42 167.344 250.473 167.058 C 251.526 166.778 252.607 166.638 253.717 166.638 Z M 253.408 177.929 C 254.091 177.929 254.696 177.775 255.222 177.468 C 255.755 177.153 256.132 176.695 256.353 176.094 L 256.353 174.711 L 253.61 174.711 C 251.975 174.711 251.156 175.238 251.156 176.294 C 251.156 176.797 251.356 177.195 251.754 177.489 C 252.152 177.782 252.703 177.929 253.408 177.929 Z M 274.152 161.701 L 278.143 161.701 L 278.143 180.372 L 274.323 180.372 L 274.323 178.81 C 273.333 179.984 271.9 180.571 270.022 180.571 C 268.728 180.571 267.554 180.288 266.501 179.722 C 265.456 179.148 264.634 178.335 264.036 177.279 C 263.439 176.223 263.14 174.997 263.14 173.599 C 263.14 172.208 263.439 170.986 264.036 169.93 C 264.634 168.874 265.456 168.061 266.501 167.487 C 267.554 166.921 268.728 166.638 270.022 166.638 C 271.78 166.638 273.156 167.183 274.152 168.274 L 274.152 161.701 Z M 270.716 177.352 C 271.727 177.352 272.562 177.014 273.224 176.335 C 273.893 175.657 274.227 174.745 274.227 173.599 C 274.227 172.46 273.893 171.552 273.224 170.874 C 272.562 170.195 271.727 169.857 270.716 169.857 C 269.692 169.857 268.846 170.195 268.177 170.874 C 267.515 171.552 267.184 172.46 267.184 173.599 C 267.184 174.745 267.515 175.657 268.177 176.335 C 268.846 177.014 269.692 177.352 270.716 177.352 Z M 295.329 173.652 C 295.329 173.701 295.301 174.053 295.244 174.711 L 284.83 174.711 C 285.014 175.549 285.456 176.213 286.153 176.702 C 286.857 177.185 287.729 177.426 288.767 177.426 C 289.485 177.426 290.122 177.321 290.677 177.111 C 291.232 176.902 291.747 176.569 292.224 176.115 L 294.348 178.38 C 293.053 179.84 291.16 180.571 288.671 180.571 C 287.113 180.571 285.737 180.274 284.542 179.68 C 283.347 179.085 282.426 178.261 281.778 177.206 C 281.13 176.144 280.807 174.941 280.807 173.599 C 280.807 172.278 281.127 171.083 281.767 170.014 C 282.408 168.952 283.286 168.124 284.403 167.529 C 285.52 166.935 286.772 166.638 288.159 166.638 C 289.503 166.638 290.723 166.921 291.819 167.487 C 292.907 168.061 293.764 168.879 294.39 169.941 C 295.017 171.01 295.329 172.247 295.329 173.652 Z M 288.18 169.605 C 287.276 169.605 286.516 169.857 285.897 170.36 C 285.285 170.863 284.912 171.552 284.776 172.425 L 291.563 172.425 C 291.427 171.566 291.051 170.881 290.432 170.37 C 289.82 169.86 289.069 169.605 288.18 169.605 Z M 315.628 166.638 C 317.356 166.638 318.73 167.134 319.746 168.127 C 320.757 169.126 321.262 170.625 321.262 172.624 L 321.262 180.372 L 317.271 180.372 L 317.271 173.222 C 317.271 172.153 317.044 171.353 316.588 170.821 C 316.14 170.297 315.496 170.035 314.657 170.035 C 313.718 170.035 312.974 170.332 312.427 170.926 C 311.886 171.52 311.616 172.404 311.616 173.578 L 311.616 180.372 L 307.614 180.372 L 307.614 173.222 C 307.614 171.097 306.742 170.035 305 170.035 C 304.082 170.035 303.349 170.332 302.802 170.926 C 302.254 171.52 301.98 172.404 301.98 173.578 L 301.98 180.372 L 297.99 180.372 L 297.99 166.838 L 301.799 166.838 L 301.799 168.4 C 302.311 167.826 302.941 167.39 303.687 167.089 C 304.427 166.788 305.242 166.638 306.131 166.638 C 307.105 166.638 307.984 166.827 308.767 167.204 C 309.556 167.582 310.189 168.13 310.666 168.85 C 311.228 168.145 311.939 167.6 312.8 167.215 C 313.661 166.83 314.603 166.638 315.628 166.638 Z M 334.422 166.838 L 338.264 166.838 L 332.043 181.2 C 331.41 182.759 330.631 183.859 329.706 184.502 C 328.775 185.138 327.651 185.456 326.334 185.456 C 325.616 185.456 324.909 185.348 324.211 185.131 C 323.507 184.908 322.935 184.604 322.493 184.219 L 323.955 181.43 C 324.261 181.696 324.613 181.905 325.011 182.059 C 325.417 182.206 325.816 182.28 326.206 182.28 C 326.755 182.28 327.199 182.151 327.54 181.892 C 327.881 181.633 328.188 181.203 328.458 180.602 L 328.511 180.476 L 322.546 166.838 L 326.665 166.838 L 330.538 176.021 L 334.422 166.838 Z" style="fill: rgb(48, 64, 110); stroke: rgb(48, 64, 110); stroke-miterlimit: 1; stroke-width: 0px; white-space: pre;"/>
  <rect x="76.797" y="137.946" width="66.659" height="23.755" style="fill: rgb(216, 216, 216);"/>
</svg>