<?xml version="1.0" encoding="utf-8"?>
<svg viewBox="210.067 235.031 180.17 32.921" width="180.17" height="32.921" xmlns="http://www.w3.org/2000/svg">
  <path d="M 210.067 235.031 H 281.442 V 267.952 H 210.067 V 235.031 Z" style="fill: rgb(255, 255, 255); stroke: rgb(48, 64, 110); stroke-miterlimit: 1; stroke-width: 0px;" class="background-left"/>
  <path d="M 229.633 241.517 C 231.126 241.517 232.42 241.764 233.513 242.257 C 234.606 242.757 235.45 243.464 236.043 244.377 C 236.636 245.284 236.933 246.364 236.933 247.617 C 236.933 248.844 236.636 249.917 236.043 250.837 C 235.45 251.757 234.606 252.464 233.513 252.957 C 232.42 253.444 231.126 253.687 229.633 253.687 L 226.253 253.687 L 226.253 258.317 L 222.363 258.317 L 222.363 241.517 L 229.633 241.517 Z M 229.423 250.517 C 230.59 250.517 231.476 250.264 232.083 249.757 C 232.69 249.257 232.993 248.544 232.993 247.617 C 232.993 246.67 232.69 245.944 232.083 245.437 C 231.476 244.937 230.59 244.687 229.423 244.687 L 226.253 244.687 L 226.253 250.517 L 229.423 250.517 ZM 247.521 245.217 C 249.121 245.217 250.411 245.697 251.391 246.657 C 252.377 247.617 252.871 249.04 252.871 250.927 L 252.871 258.317 L 249.121 258.317 L 249.121 251.497 C 249.121 250.477 248.897 249.714 248.451 249.207 C 248.004 248.707 247.357 248.457 246.511 248.457 C 245.564 248.457 244.811 248.747 244.251 249.327 C 243.691 249.914 243.411 250.784 243.411 251.937 L 243.411 258.317 L 239.671 258.317 L 239.671 240.507 L 243.411 240.507 L 243.411 246.747 C 243.911 246.254 244.511 245.874 245.211 245.607 C 245.917 245.347 246.687 245.217 247.521 245.217 ZM 265.225 245.407 L 268.825 245.407 L 262.995 259.107 C 262.401 260.594 261.671 261.644 260.805 262.257 C 259.931 262.864 258.878 263.167 257.645 263.167 C 256.971 263.167 256.308 263.064 255.655 262.857 C 254.995 262.644 254.458 262.354 254.045 261.987 L 255.415 259.327 C 255.701 259.58 256.031 259.78 256.405 259.927 C 256.785 260.067 257.158 260.137 257.525 260.137 C 258.038 260.137 258.455 260.014 258.775 259.767 C 259.095 259.52 259.381 259.11 259.635 258.537 L 259.685 258.417 L 254.095 245.407 L 257.955 245.407 L 261.585 254.167 L 265.225 245.407 ZM 274.515 258.507 C 273.441 258.507 272.395 258.377 271.375 258.117 C 270.348 257.85 269.531 257.517 268.925 257.117 L 270.175 254.427 C 270.748 254.794 271.445 255.094 272.265 255.327 C 273.078 255.56 273.878 255.677 274.665 255.677 C 276.245 255.677 277.035 255.284 277.035 254.497 C 277.035 254.13 276.818 253.867 276.385 253.707 C 275.958 253.547 275.295 253.41 274.395 253.297 C 273.341 253.137 272.471 252.954 271.785 252.747 C 271.091 252.54 270.495 252.174 269.995 251.647 C 269.488 251.12 269.235 250.367 269.235 249.387 C 269.235 248.574 269.471 247.85 269.945 247.217 C 270.418 246.584 271.105 246.09 272.005 245.737 C 272.911 245.39 273.981 245.217 275.215 245.217 C 276.128 245.217 277.035 245.317 277.935 245.517 C 278.841 245.717 279.591 245.99 280.185 246.337 L 278.935 249.007 C 277.795 248.367 276.555 248.047 275.215 248.047 C 274.415 248.047 273.815 248.157 273.415 248.377 C 273.015 248.604 272.815 248.894 272.815 249.247 C 272.815 249.647 273.031 249.927 273.465 250.087 C 273.891 250.247 274.578 250.397 275.525 250.537 C 276.578 250.717 277.441 250.907 278.115 251.107 C 278.788 251.307 279.371 251.67 279.865 252.197 C 280.365 252.724 280.615 253.46 280.615 254.407 C 280.615 255.207 280.375 255.917 279.895 256.537 C 279.415 257.164 278.715 257.65 277.795 257.997 C 276.875 258.337 275.781 258.507 274.515 258.507 Z" transform="matrix(1.067037, 0, 0, 1.048338, -22.382347, -11.443071)" style="fill: rgb(48, 64, 110); stroke: rgb(48, 64, 110); stroke-miterlimit: 1; stroke-width: 0px; white-space: pre;" class="text-left"/>
  <path d="M 281.442 235.031 H 390.237 V 267.952 H 281.442 V 235.031 Z" style="fill: rgb(48, 64, 110); stroke: rgb(48, 64, 110); stroke-width: 0px;" class="background-right"/>
  <path d="M 291.19 258.511 C 289.51 258.511 287.993 258.141 286.64 257.401 C 285.293 256.654 284.233 255.628 283.46 254.321 C 282.693 253.021 282.31 251.554 282.31 249.921 C 282.31 248.288 282.693 246.821 283.46 245.521 C 284.233 244.214 285.3 243.188 286.66 242.441 C 288.02 241.701 289.54 241.331 291.22 241.331 C 292.527 241.331 293.727 241.551 294.82 241.991 C 295.907 242.431 296.833 243.081 297.6 243.941 L 296.04 245.461 C 294.773 244.128 293.197 243.461 291.31 243.461 C 290.063 243.461 288.937 243.741 287.93 244.301 C 286.923 244.861 286.133 245.634 285.56 246.621 C 284.993 247.608 284.71 248.708 284.71 249.921 C 284.71 251.134 284.993 252.234 285.56 253.221 C 286.133 254.208 286.923 254.981 287.93 255.541 C 288.937 256.101 290.063 256.381 291.31 256.381 C 293.183 256.381 294.76 255.708 296.04 254.361 L 297.6 255.871 C 296.833 256.738 295.9 257.394 294.8 257.841 C 293.707 258.288 292.503 258.511 291.19 258.511 ZM 305.162 245.481 C 306.922 245.481 308.269 245.914 309.202 246.781 C 310.135 247.641 310.602 248.928 310.602 250.641 L 310.602 258.321 L 308.422 258.321 L 308.422 256.641 C 308.035 257.234 307.489 257.688 306.782 258.001 C 306.069 258.308 305.222 258.461 304.242 258.461 C 302.822 258.461 301.682 258.118 300.822 257.431 C 299.969 256.744 299.542 255.841 299.542 254.721 C 299.542 253.601 299.949 252.701 300.762 252.021 C 301.582 251.341 302.879 251.001 304.652 251.001 L 308.302 251.001 L 308.302 250.541 C 308.302 249.554 308.015 248.794 307.442 248.261 C 306.862 247.734 306.012 247.471 304.892 247.471 C 304.139 247.471 303.402 247.594 302.682 247.841 C 301.962 248.094 301.355 248.428 300.862 248.841 L 299.902 247.111 C 300.555 246.584 301.339 246.181 302.252 245.901 C 303.165 245.621 304.135 245.481 305.162 245.481 Z M 304.632 256.691 C 305.512 256.691 306.272 256.494 306.912 256.101 C 307.552 255.708 308.015 255.151 308.302 254.431 L 308.302 252.661 L 304.752 252.661 C 302.799 252.661 301.822 253.314 301.822 254.621 C 301.822 255.261 302.069 255.768 302.562 256.141 C 303.062 256.508 303.752 256.691 304.632 256.691 ZM 324.644 240.511 L 326.944 240.511 L 326.944 258.321 L 324.744 258.321 L 324.744 256.301 C 324.231 257.008 323.581 257.544 322.794 257.911 C 322.014 258.278 321.151 258.461 320.204 258.461 C 318.971 258.461 317.868 258.191 316.894 257.651 C 315.914 257.104 315.151 256.341 314.604 255.361 C 314.051 254.374 313.774 253.241 313.774 251.961 C 313.774 250.681 314.051 249.554 314.604 248.581 C 315.151 247.601 315.914 246.841 316.894 246.301 C 317.868 245.754 318.971 245.481 320.204 245.481 C 321.118 245.481 321.958 245.654 322.724 246.001 C 323.491 246.341 324.131 246.848 324.644 247.521 L 324.644 240.511 Z M 320.394 256.451 C 321.194 256.451 321.924 256.261 322.584 255.881 C 323.238 255.508 323.748 254.981 324.114 254.301 C 324.481 253.621 324.664 252.841 324.664 251.961 C 324.664 251.081 324.481 250.301 324.114 249.621 C 323.748 248.941 323.238 248.418 322.584 248.051 C 321.924 247.684 321.194 247.501 320.394 247.501 C 319.581 247.501 318.851 247.684 318.204 248.051 C 317.551 248.418 317.038 248.941 316.664 249.621 C 316.291 250.301 316.104 251.081 316.104 251.961 C 316.104 252.841 316.291 253.621 316.664 254.301 C 317.038 254.981 317.551 255.508 318.204 255.881 C 318.851 256.261 319.581 256.451 320.394 256.451 ZM 342.81 252.031 C 342.81 252.211 342.794 252.444 342.76 252.731 L 332.44 252.731 C 332.587 253.851 333.08 254.751 333.92 255.431 C 334.76 256.111 335.804 256.451 337.05 256.451 C 338.57 256.451 339.794 255.938 340.72 254.911 L 341.99 256.401 C 341.417 257.074 340.704 257.588 339.85 257.941 C 338.99 258.288 338.034 258.461 336.98 258.461 C 335.634 258.461 334.44 258.188 333.4 257.641 C 332.36 257.088 331.557 256.314 330.99 255.321 C 330.424 254.328 330.14 253.208 330.14 251.961 C 330.14 250.728 330.417 249.614 330.97 248.621 C 331.517 247.634 332.277 246.864 333.25 246.311 C 334.217 245.758 335.307 245.481 336.52 245.481 C 337.74 245.481 338.824 245.758 339.77 246.311 C 340.724 246.864 341.47 247.634 342.01 248.621 C 342.544 249.614 342.81 250.751 342.81 252.031 Z M 336.52 247.421 C 335.42 247.421 334.497 247.758 333.75 248.431 C 333.004 249.104 332.567 249.984 332.44 251.071 L 340.6 251.071 C 340.474 249.998 340.037 249.121 339.29 248.441 C 338.55 247.761 337.627 247.421 336.52 247.421 ZM 361.917 245.481 C 363.517 245.481 364.783 245.944 365.717 246.871 C 366.65 247.798 367.117 249.174 367.117 251.001 L 367.117 258.321 L 364.817 258.321 L 364.817 251.261 C 364.817 250.034 364.533 249.108 363.967 248.481 C 363.4 247.854 362.587 247.541 361.527 247.541 C 360.36 247.541 359.433 247.908 358.747 248.641 C 358.06 249.368 357.717 250.411 357.717 251.771 L 357.717 258.321 L 355.407 258.321 L 355.407 251.261 C 355.407 250.034 355.123 249.108 354.557 248.481 C 353.99 247.854 353.177 247.541 352.117 247.541 C 350.95 247.541 350.023 247.908 349.337 248.641 C 348.65 249.368 348.307 250.411 348.307 251.771 L 348.307 258.321 L 345.997 258.321 L 345.997 245.601 L 348.207 245.601 L 348.207 247.501 C 348.673 246.841 349.283 246.341 350.037 246.001 C 350.783 245.654 351.637 245.481 352.597 245.481 C 353.59 245.481 354.47 245.681 355.237 246.081 C 356.01 246.481 356.603 247.064 357.017 247.831 C 357.497 247.098 358.163 246.521 359.017 246.101 C 359.877 245.688 360.843 245.481 361.917 245.481 ZM 380.122 245.601 L 382.382 245.601 L 376.212 259.591 C 375.672 260.891 375.035 261.804 374.302 262.331 C 373.575 262.858 372.702 263.121 371.682 263.121 C 371.055 263.121 370.449 263.021 369.862 262.821 C 369.282 262.621 368.799 262.328 368.412 261.941 L 369.402 260.221 C 370.055 260.841 370.815 261.151 371.682 261.151 C 372.242 261.151 372.709 261.004 373.082 260.711 C 373.455 260.411 373.795 259.901 374.102 259.181 L 374.512 258.301 L 368.892 245.601 L 371.292 245.601 L 375.732 255.781 L 380.122 245.601 Z" transform="matrix(0.971107, 0, 0, 1.001598, 13.352536, 1.039761)" style="fill: rgb(255, 255, 255); stroke-width: 0.4px; white-space: pre;"/>
</svg>