<?xml version="1.0" encoding="iso-8859-1"?>
<!-- Generator: Adobe Illustrator 19.0.0, SVG Export Plug-In . SVG Version: 6.00 Build 0)  -->
<svg version="1.1" id="Capa_1" xmlns="http://www.w3.org/2000/svg" xmlns:xlink="http://www.w3.org/1999/xlink" x="0px" y="0px"
	 viewBox="0 0 512 512" style="enable-background:new 0 0 512 512;" xml:space="preserve">
<g>
	<g>
		<path d="M423.853,147.692c19.246-6.523,32.294-24.451,32.294-45.196c0-23.38-16.913-43.058-39.416-47.025
			c-6.26-19.497-24.574-33.14-45.474-33.14c-8.428,0-16.494,2.156-23.662,6.27C326.878,10.115,300.433,0,272.465,0h-32.931
			c-11.774,0-23.394,1.808-34.537,5.372c-3.949,1.263-6.126,5.488-4.863,9.438s5.49,6.126,9.438,4.863
			c9.662-3.091,19.743-4.658,29.962-4.658h32.931c26.033,0,50.548,10.103,69.031,28.45c2.87,2.849,5.557,5.88,8.054,9.053
			c-11.368,6.664-19.023,19.005-19.023,33.107c0,16.783,11.049,31.357,26.405,36.433c-0.159,1.212-0.239,2.44-0.239,3.681
			c0,10.275,5.528,19.28,13.764,24.206v49.382v7.277c0,2.239-0.063,4.466-0.188,6.68c-0.753,13.284-3.76,26.104-8.974,38.261
			c-0.244,0.569-0.503,1.132-0.757,1.697c-0.198,0.442-0.388,0.887-0.593,1.327c-0.465,1.003-0.945,2.001-1.44,2.995
			c0,0.001-0.001,0.002-0.001,0.003c0,0.001-0.001,0.001-0.001,0.002c-12.835,25.774-34.684,45.639-61.524,55.934
			c-0.823,0.316-1.649,0.622-2.477,0.919c-0.044,0.016-0.088,0.03-0.131,0.045c-6.592,2.348-13.369,4.076-20.267,5.172
			c-0.059,0.009-0.118,0.017-0.176,0.026c-0.803,0.126-1.607,0.245-2.411,0.354c-0.138,0.019-0.277,0.034-0.416,0.052
			c-0.724,0.095-1.448,0.187-2.175,0.268c-0.234,0.026-0.469,0.047-0.704,0.072c-0.63,0.067-1.26,0.133-1.892,0.189
			c-0.329,0.029-0.66,0.052-0.989,0.078c-0.539,0.044-1.078,0.088-1.618,0.124c-0.402,0.027-0.807,0.046-1.21,0.068
			c-0.47,0.026-0.94,0.055-1.41,0.076c-0.443,0.019-0.887,0.031-1.331,0.045c-0.437,0.014-0.874,0.031-1.311,0.04
			c-0.452,0.009-0.905,0.011-1.358,0.015c-0.498,0.005-0.997,0.014-1.496,0.012c-2.62-0.009-5.229-0.106-7.823-0.292
			c-1.842-0.132-3.676-0.312-5.502-0.534c-9.324-1.128-18.439-3.411-27.228-6.832c-26.505-10.308-48.215-30.146-61.136-55.862
			c-8.21-16.321-12.372-33.904-12.372-52.259v-5.956v-49.382c8.236-4.927,13.765-13.931,13.765-24.206
			c0-1.241-0.08-2.469-0.239-3.681c15.355-5.076,26.405-19.65,26.405-36.433c0-14.102-7.655-26.443-19.023-33.107
			c2.496-3.174,5.185-6.205,8.056-9.055c4.209-4.181,8.809-7.99,13.676-11.325c3.42-2.343,4.294-7.016,1.951-10.436
			s-7.016-4.294-10.436-1.951c-3.932,2.693-7.7,5.669-11.279,8.857c-7.171-4.118-15.242-6.277-23.675-6.277
			c-20.9,0-39.214,13.643-45.474,33.14c-22.504,3.97-39.418,23.648-39.418,47.028c0,20.745,13.048,38.673,32.294,45.196
			c4.46,18.451,19.754,32.439,38.382,35.407v8.72h-12.131c-21.117,0-38.296,17.179-38.296,38.296
			c0,21.122,17.179,38.306,38.296,38.306h28.283c13.954,25.503,35.759,45.498,62.142,56.995v12.133l-20.381,5.643
			c-3.378,0.936-5.66,4.085-5.495,7.587l0.129,2.739c-37.264,9.847-63.677,43.673-63.677,82.82v68.154
			c0,4.146,3.361,7.507,7.507,7.507h266.19c4.146,0,7.507-3.361,7.507-7.507v-68.154c0-29.689-15.033-56.84-40.213-72.632
			c-3.513-2.203-8.147-1.141-10.349,2.371c-2.203,3.512-1.141,8.146,2.371,10.349c20.773,13.028,33.176,35.425,33.176,59.912v60.647
			H263.507v-52.24c3.206-3.816,10.141-12.263,17.558-22.551l36.361,22.778c1.215,0.762,2.598,1.145,3.986,1.145
			c1.192,0,2.387-0.284,3.48-0.856c2.363-1.236,3.893-3.634,4.018-6.299l4.144-88.183c0.165-3.502-2.117-6.652-5.495-7.587
			l-20.381-5.643v-11.998c26.717-11.491,48.679-31.535,62.589-57.131h27.836c21.117,0,38.296-17.184,38.296-38.306
			c0-21.117-17.179-38.296-38.296-38.296h-12.131v-8.72C404.101,180.132,419.393,166.145,423.853,147.692z M114.397,253.409
			L114.397,253.409c-12.838-0.001-23.282-10.45-23.282-23.293c0-12.838,10.444-23.282,23.282-23.282h12.14
			c0.006,0.521,0.024,1.043,0.037,1.564c0.008,0.337,0.013,0.676,0.024,1.013c0.037,1.156,0.086,2.312,0.153,3.466
			c0.008,0.136,0.02,0.271,0.028,0.407c0.063,1.022,0.138,2.044,0.225,3.065c0.031,0.37,0.067,0.74,0.102,1.109
			c0.076,0.812,0.159,1.622,0.25,2.432c0.043,0.382,0.085,0.765,0.132,1.146c0.111,0.915,0.232,1.828,0.362,2.74
			c0.034,0.24,0.064,0.48,0.099,0.72c0.169,1.139,0.353,2.276,0.552,3.41c0.054,0.307,0.113,0.614,0.169,0.921
			c0.153,0.842,0.313,1.682,0.482,2.52c0.078,0.387,0.159,0.775,0.241,1.161c0.169,0.802,0.347,1.602,0.531,2.4
			c0.08,0.347,0.157,0.695,0.24,1.041c0.268,1.119,0.547,2.235,0.844,3.347c0.028,0.103,0.058,0.206,0.086,0.309
			c0.273,1.013,0.56,2.022,0.857,3.028c0.107,0.361,0.218,0.722,0.328,1.083c0.234,0.769,0.474,1.534,0.723,2.298
			c0.122,0.376,0.245,0.754,0.37,1.129c0.279,0.834,0.569,1.665,0.865,2.493c0.095,0.266,0.186,0.535,0.283,0.801
			c0.362,0.994,0.735,1.985,1.121,2.97H114.397z M127.119,138.914c-4.146,0-7.507,3.361-7.507,7.507
			c0,3.947,3.047,7.175,6.917,7.477v13.917c-12.702-3.02-22.676-13.642-24.416-27.039c-0.405-3.12-2.713-5.656-5.78-6.354
			c-14.994-3.407-25.466-16.535-25.466-31.926c0-17.32,13.536-31.676,30.815-32.683c3.421-0.199,6.273-2.69,6.93-6.052
			c2.997-15.306,16.508-26.416,32.13-26.416c4.417,0,8.685,0.873,12.646,2.536c-2.092,2.461-4.075,5.012-5.947,7.637
			c-1.42-0.16-2.862-0.25-4.325-0.25c-4.146,0-7.507,3.361-7.507,7.507s3.361,7.507,7.507,7.507
			c12.871,0,23.342,10.471,23.342,23.342c0,12.106-9.445,22.324-21.502,23.262c-2.501,0.194-4.739,1.626-5.967,3.815
			s-1.279,4.845-0.139,7.08c0.957,1.877,1.442,3.882,1.442,5.96C140.293,133.005,134.383,138.914,127.119,138.914z M204.822,353.13
			v14.314c0,0.679,0.029,1.376,0.08,2.088c0.017,0.233,0.049,0.476,0.071,0.713c0.046,0.486,0.094,0.974,0.162,1.475
			c0.04,0.289,0.093,0.588,0.14,0.883c0.075,0.464,0.153,0.932,0.247,1.409c0.063,0.319,0.136,0.646,0.207,0.97
			c0.104,0.471,0.214,0.946,0.336,1.429c0.085,0.337,0.176,0.679,0.271,1.022c0.134,0.49,0.279,0.987,0.431,1.489
			c0.106,0.349,0.214,0.701,0.329,1.056c0.168,0.519,0.35,1.049,0.538,1.58c0.124,0.351,0.244,0.702,0.376,1.058
			c0.211,0.573,0.441,1.157,0.674,1.743c0.132,0.332,0.256,0.66,0.395,0.996c0.287,0.697,0.597,1.409,0.913,2.125
			c0.106,0.24,0.201,0.473,0.311,0.717c0.437,0.97,0.9,1.957,1.39,2.963c0.09,0.184,0.191,0.376,0.282,0.562
			c0.406,0.823,0.824,1.654,1.265,2.501c0.186,0.358,0.387,0.727,0.581,1.089c0.366,0.688,0.735,1.378,1.123,2.082
			c0.234,0.423,0.48,0.856,0.723,1.285c0.373,0.662,0.751,1.326,1.143,2.001c0.268,0.46,0.544,0.928,0.822,1.394
			c0.393,0.664,0.795,1.331,1.206,2.008c0.296,0.485,0.597,0.975,0.902,1.467c0.388,0.626,0.785,1.257,1.188,1.894
			c0.132,0.208,0.262,0.417,0.394,0.626c0.222,0.348,0.449,0.701,0.677,1.053c0.147,0.228,0.284,0.449,0.433,0.68l-24.949,15.631
			l-3.26-69.369L204.822,353.13z M248.493,496.986H130.412v0v-60.647c0-31.186,20.316-58.277,49.386-67.408l3.291,70.033
			c0.125,2.664,1.655,5.063,4.018,6.299c1.093,0.572,2.288,0.856,3.48,0.856c1.387,0,2.771-0.383,3.986-1.145l36.361-22.778
			c7.418,10.289,14.352,18.737,17.558,22.551V496.986z M255.999,430.228c-0.039-0.048-0.081-0.1-0.12-0.149
			c-0.303-0.375-0.614-0.762-0.935-1.162c-0.048-0.059-0.096-0.121-0.144-0.181c-5.767-7.206-14.185-18.224-21.351-29.584
			c14.705,3.746,30.395,3.746,45.1,0.001C270.87,411.322,261.75,423.109,255.999,430.228z M255.999,386.974
			c-11.626,0-22.757-2.547-33.13-7.57c-2.451-6-3.034-9.759-3.034-11.96v-24.183v-12.374c0.107,0.031,0.214,0.057,0.321,0.088
			c1.264,0.369,2.533,0.72,3.808,1.049c0.236,0.061,0.474,0.118,0.712,0.177c1.129,0.284,2.262,0.554,3.398,0.807
			c0.252,0.056,0.504,0.115,0.757,0.17c1.283,0.278,2.571,0.536,3.864,0.774c0.278,0.051,0.558,0.098,0.836,0.148
			c1.156,0.205,2.315,0.395,3.478,0.569c0.208,0.031,0.416,0.066,0.625,0.096c1.304,0.187,2.612,0.352,3.925,0.499
			c0.305,0.034,0.612,0.065,0.918,0.098c1.219,0.128,2.44,0.242,3.665,0.335c0.136,0.01,0.272,0.024,0.408,0.034
			c1.327,0.097,2.658,0.167,3.992,0.223c0.318,0.013,0.638,0.025,0.956,0.036c1.35,0.047,2.702,0.08,4.058,0.084
			c0.144,0.001,0.285,0.001,0.428,0.001c1.266,0,2.528-0.025,3.789-0.061c0.341-0.01,0.683-0.022,1.023-0.035
			c1.298-0.047,2.593-0.108,3.886-0.193c0.083-0.005,0.167-0.009,0.25-0.014c1.351-0.092,2.697-0.212,4.041-0.345
			c0.337-0.034,0.674-0.067,1.011-0.104c1.334-0.143,2.665-0.301,3.992-0.485c0.177-0.025,0.353-0.054,0.531-0.079
			c1.216-0.174,2.429-0.367,3.638-0.577c0.289-0.05,0.58-0.098,0.868-0.15c1.32-0.237,2.636-0.493,3.948-0.772
			c0.25-0.053,0.5-0.111,0.75-0.165c1.177-0.257,2.351-0.531,3.52-0.821c0.229-0.057,0.459-0.11,0.688-0.168
			c1.298-0.329,2.591-0.683,3.88-1.053c0.122-0.035,0.245-0.064,0.367-0.1v12.308v24.183c0,0.718-0.061,1.6-0.229,2.672
			c-0.074,0.476-0.173,0.995-0.293,1.549c-0.439,2.019-1.215,4.566-2.511,7.739C278.756,384.426,267.625,386.974,255.999,386.974z
			 M317.775,356.064l-3.26,69.369l-24.95-15.631c0.148-0.227,0.283-0.446,0.429-0.673c0.228-0.353,0.456-0.708,0.681-1.058
			c0.135-0.212,0.268-0.426,0.403-0.639c0.398-0.629,0.791-1.253,1.174-1.872c0.31-0.499,0.615-0.996,0.915-1.489
			c0.406-0.668,0.803-1.328,1.191-1.983c0.281-0.474,0.562-0.948,0.834-1.415c0.388-0.669,0.763-1.327,1.132-1.982
			c0.245-0.434,0.494-0.872,0.732-1.301c0.384-0.696,0.749-1.377,1.11-2.058c0.197-0.37,0.403-0.748,0.594-1.114
			c0.436-0.838,0.849-1.659,1.25-2.473c0.096-0.194,0.201-0.394,0.295-0.588c0.489-1.005,0.951-1.991,1.388-2.959
			c0.112-0.248,0.21-0.487,0.319-0.734c0.313-0.711,0.621-1.416,0.905-2.107c0.14-0.339,0.265-0.67,0.398-1.004
			c0.232-0.584,0.46-1.166,0.672-1.737c0.132-0.358,0.253-0.709,0.377-1.061c0.187-0.531,0.368-1.059,0.536-1.577
			c0.115-0.356,0.223-0.709,0.33-1.059c0.152-0.5,0.296-0.996,0.43-1.484c0.095-0.344,0.186-0.688,0.272-1.026
			c0.122-0.482,0.232-0.957,0.335-1.427c0.072-0.325,0.145-0.652,0.208-0.971c0.094-0.477,0.172-0.944,0.247-1.409
			c0.047-0.294,0.1-0.593,0.14-0.883c0.069-0.501,0.117-0.989,0.162-1.475c0.022-0.237,0.054-0.479,0.071-0.713
			c0.051-0.712,0.08-1.409,0.08-2.088v-14.314L317.775,356.064z M397.601,206.832c12.84,0.002,23.284,10.446,23.284,23.284
			c0,12.843-10.444,23.292-23.282,23.292h-20.849c0.369-0.947,0.726-1.898,1.071-2.852c0.041-0.113,0.079-0.227,0.119-0.34
			c0.344-0.957,0.676-1.918,0.996-2.882c0.112-0.337,0.219-0.677,0.328-1.015c0.245-0.758,0.483-1.517,0.714-2.279
			c0.111-0.366,0.22-0.732,0.328-1.099c0.233-0.797,0.456-1.595,0.674-2.395c0.082-0.301,0.167-0.601,0.246-0.902
			c0.289-1.099,0.567-2.2,0.827-3.306c0.031-0.131,0.058-0.263,0.088-0.395c0.225-0.972,0.439-1.948,0.642-2.926
			c0.072-0.35,0.14-0.702,0.21-1.053c0.155-0.78,0.302-1.561,0.443-2.345c0.067-0.375,0.134-0.752,0.197-1.128
			c0.14-0.824,0.27-1.65,0.393-2.476c0.046-0.306,0.095-0.612,0.139-0.919c0.16-1.127,0.307-2.257,0.438-3.39
			c0.02-0.17,0.034-0.34,0.053-0.51c0.107-0.964,0.204-1.93,0.29-2.899c0.033-0.368,0.06-0.739,0.09-1.108
			c0.063-0.792,0.12-1.585,0.169-2.38c0.024-0.389,0.047-0.779,0.068-1.169c0.045-0.848,0.08-1.698,0.108-2.549
			c0.01-0.307,0.025-0.614,0.033-0.922c0.029-1.109,0.048-2.22,0.05-3.335H397.601z M385.47,167.811v-13.917
			c3.869-0.302,6.916-3.53,6.916-7.477c0-4.146-3.361-7.507-7.507-7.507c-7.264,0-13.173-5.91-13.173-13.173
			c0-2.077,0.485-4.083,1.441-5.96c1.14-2.235,1.087-4.892-0.139-7.08c-1.227-2.189-3.465-3.619-5.967-3.815
			c-12.056-0.936-21.501-11.153-21.501-23.26c0-12.871,10.471-23.342,23.342-23.342c4.146,0,7.507-3.361,7.507-7.507
			s-3.361-7.507-7.507-7.507c-1.462,0-2.905,0.09-4.325,0.25c-1.872-2.625-3.854-5.176-5.947-7.637
			c3.961-1.664,8.229-2.536,12.646-2.536c15.621,0,29.133,11.109,32.13,26.416c0.659,3.362,3.51,5.852,6.93,6.052
			c17.279,1.007,30.815,15.363,30.815,32.683c0,15.39-10.472,28.519-25.466,31.926c-3.068,0.697-5.376,3.233-5.78,6.354
			C408.147,154.172,398.172,164.794,385.47,167.811z"/>
	</g>
</g>
<g>
	<g>
		<path d="M363.552,175.243c-2.073-3.59-6.664-4.82-10.255-2.748l-5.976,3.45c-5.059-15.798-19.88-27.269-37.335-27.269
			c-19.046,0-34.955,13.656-38.468,31.69H240.48c-3.513-18.033-19.422-31.69-38.467-31.69c-17.455,0-32.276,11.471-37.335,27.269
			l-5.976-3.45c-3.59-2.074-8.182-0.843-10.255,2.748c-2.073,3.59-0.843,8.182,2.748,10.255l11.886,6.862
			c2.234,19.506,18.837,34.71,38.932,34.71c19.045,0,34.955-13.656,38.467-31.69h31.038c3.513,18.033,19.422,31.69,38.468,31.69
			c20.095,0,36.697-15.202,38.932-34.71l11.886-6.862C364.395,183.425,365.625,178.834,363.552,175.243z M202.013,212.056
			c-13.335,0-24.183-10.848-24.183-24.183c0-13.334,10.848-24.183,24.183-24.183c13.334,0,24.183,10.848,24.183,24.183
			C226.196,201.209,215.348,212.056,202.013,212.056z M309.987,212.057c-13.335-0.001-24.183-10.848-24.183-24.183
			c0-13.335,10.848-24.183,24.183-24.183s24.183,10.848,24.183,24.183C334.169,201.209,323.321,212.057,309.987,212.057z"/>
	</g>
</g>
<g>
	<g>
		<path d="M265.296,220.929h-18.591c-21.682,0-39.322,17.64-39.322,39.322v12.894c0,2.837,1.599,5.431,4.133,6.706
			c2.534,1.274,5.57,1.012,7.848-0.678c25.875-19.205,49.751-19.277,72.986-0.224c1.369,1.122,3.057,1.703,4.761,1.703
			c1.09,0,2.187-0.237,3.21-0.722c2.623-1.241,4.296-3.884,4.296-6.785v-12.894C304.618,238.569,286.978,220.929,265.296,220.929z
			 M222.414,259.339c0.481-12.982,11.193-23.395,24.291-23.395h18.591c12.907-0.001,23.496,10.111,24.263,22.829
			C268.123,246.444,245.37,246.606,222.414,259.339z"/>
	</g>
</g>
<g>
	<g>
		<path d="M309.154,101.782c-8.211,0-12.69,1.954-16.289,3.523c-3.025,1.318-5.21,2.272-10.29,2.272
			c-5.08,0-7.265-0.953-10.29-2.272c-3.599-1.569-8.08-3.523-16.29-3.523c-8.21,0-12.689,1.954-16.288,3.523
			c-3.024,1.318-5.209,2.272-10.287,2.272s-7.263-0.953-10.287-2.272c-3.599-1.569-8.079-3.523-16.287-3.523
			c-4.146,0-7.507,3.361-7.507,7.507c0,4.146,3.36,7.507,7.507,7.507c5.078,0,7.262,0.953,10.286,2.271
			c3.599,1.569,8.08,3.523,16.288,3.523c8.21,0,12.689-1.954,16.288-3.523c3.024-1.318,5.209-2.271,10.287-2.271
			c5.08,0,7.265,0.953,10.29,2.271c3.599,1.569,8.08,3.523,16.29,3.523c8.211,0,12.691-1.954,16.29-3.523
			c3.025-1.318,5.21-2.271,10.289-2.271c4.146,0,7.507-3.361,7.507-7.507C316.661,105.144,313.3,101.782,309.154,101.782z"/>
	</g>
</g>
<g>
	<g>
		<path d="M282.575,81.193c-5.08,0-7.265-0.953-10.29-2.272c-3.599-1.57-8.08-3.523-16.29-3.523c-8.21,0-12.689,1.954-16.288,3.523
			c-3.024,1.318-5.209,2.272-10.287,2.272c-4.146,0-7.507,3.361-7.507,7.507c0,4.146,3.361,7.507,7.507,7.507
			c8.21,0,12.689-1.954,16.288-3.523c3.024-1.318,5.209-2.272,10.287-2.272c5.08,0,7.265,0.953,10.29,2.272
			c3.599,1.569,8.08,3.523,16.29,3.523c4.146,0,7.507-3.361,7.507-7.507C290.082,84.554,286.721,81.193,282.575,81.193z"/>
	</g>
</g>
<g>
</g>
<g>
</g>
<g>
</g>
<g>
</g>
<g>
</g>
<g>
</g>
<g>
</g>
<g>
</g>
<g>
</g>
<g>
</g>
<g>
</g>
<g>
</g>
<g>
</g>
<g>
</g>
<g>
</g>
</svg>
