<?xml version="1.0" encoding="utf-8"?>
<svg viewBox="157.916 149.886 187.1 217.304" width="187.1" height="217.304" xmlns="http://www.w3.org/2000/svg" xmlns:bx="https://boxy-svg.com">
  <path d="M 331.178 262.659 C 331.178 320.389 294.026 367.19 248.197 367.19 C 202.368 367.19 165.216 320.389 165.216 262.659 C 165.216 204.929 202.368 158.128 248.197 158.128 C 294.026 158.128 331.178 204.929 331.178 262.659 Z M 321.403 282.91 C 323.507 279.378 324.825 274.339 324.825 268.745 C 324.825 260.537 321.991 253.526 317.995 250.717 C 308.477 217.699 281.253 193.865 249.151 193.865 C 217.44 193.865 190.485 217.13 180.663 249.531 C 175.982 252.193 172.63 259.35 172.63 267.761 C 172.63 273.658 174.277 278.937 176.875 282.485 C 179.516 325.439 210.866 359.35 249.151 359.35 C 287.315 359.35 318.584 325.663 321.403 282.91 Z"/>
  <path style="fill: rgb(216, 216, 216); stroke: rgb(0, 0, 0);" d="M 157.916 213.988"/>
  <path style="fill: rgb(216, 216, 216); stroke: rgb(0, 0, 0);" d="M 345.016 200.298"/>
  <path d="M 395.83 262.061 L 405.103 280.194 L 386.556 280.194 L 395.83 262.061 Z" transform="matrix(-0.999539, 0.030354, -0.024327, -0.999722, 571.007629, 491.995636)" bx:shape="triangle 386.556 262.061 18.547 18.133 0.5 0 1@a9356782"/>
  <path d="M 522.54 325.443 L 531.074 341.609 L 514.005 341.609 L 522.54 325.443 Z" transform="matrix(-0.945578, -0.325396, 0.266343, -0.965899, 575.759216, 713.549561)" bx:shape="triangle 514.005 325.443 17.069 16.166 0.5 0 1@c2f99fa7"/>
  <path d="M 412.641 111.664 L 426.281 125.808 L 399 125.808 L 412.641 111.664 Z" transform="matrix(-0.693801, -0.720167, 0.64337, -0.773517, 401.178925, 579.127502)" bx:shape="triangle 399 111.664 27.281 14.144 0.5 0 1@fa3e35f3"/>
  <path d="M 687.709 232.098 L 699.234 247.083 L 676.183 247.083 L 687.709 232.098 Z" transform="matrix(-0.207033, -0.978334, 0.968045, -0.255654, 106.152916, 915.583435)" bx:shape="triangle 676.183 232.098 23.051 14.985 0.5 0 1@c6768c46"/>
  <path d="M 544.795 183.289 L 556.482 200.913 L 533.107 200.913 L 544.795 183.289 Z" transform="matrix(-0.122233, -0.992501, 0.988838, -0.15198, 113.9543, 732.730103)" bx:shape="triangle 533.107 183.289 23.375 17.624 0.5 0 1@86dad8e2"/>
  <path d="M 432.082 214.404 L 442.251 234.789 L 421.912 234.789 L 432.082 214.404 Z" transform="matrix(0.82467, -0.565615, 0.483993, 0.880652, -145.083817, 260.582153)" bx:shape="triangle 421.912 214.404 20.339 20.385 0.5 0 1@6d47ce01"/>
  <path d="M 237.222 246.621 A 13.178 13.178 0 0 1 224.044 259.799 A 13.178 13.178 0 0 1 210.866 246.621 A 13.178 13.178 0 0 1 224.044 233.443 A 13.178 13.178 0 0 1 237.222 246.621 Z" style="stroke: rgb(0, 0, 0); stroke-width: 3.98683px; fill: rgba(255, 255, 255, 0);" transform="matrix(1.006609, 0, 0, 1, -0.645221, -4.833769)"/>
  <path d="M 283.272 246.621 A 13.178 13.178 0 0 1 270.094 259.799 A 13.178 13.178 0 0 1 256.916 246.621 A 13.178 13.178 0 0 1 270.094 233.443 A 13.178 13.178 0 0 1 283.272 246.621 Z" style="stroke: rgb(0, 0, 0); stroke-width: 3.98683px; fill: rgba(255, 255, 255, 0);" transform="matrix(1.006609, 0, 0, 1, 1.122268, -4.833769)"/>
  <line style="stroke: rgb(0, 0, 0); stroke-width: 3px;" x1="286.266" y1="237.351" x2="304.319" y2="218.407"/>
  <line style="stroke: rgb(0, 0, 0);" x1="194.42339379706095" y1="239.709150585383" x2="194.42339379706095" y2="239.709150585383"/>
  <line style="stroke: rgb(0, 0, 0); stroke-width: 3px;" x1="194.423" y1="218.407" x2="211.614" y2="237.351"/>
  <path style="fill: rgb(216, 216, 216); stroke: rgb(0, 0, 0);" d="M 254.881 231.822"/>
  <path style="fill: rgb(216, 216, 216); stroke: rgb(0, 0, 0);" d="M 249.012 239.213"/>
  <path style="stroke: rgb(0, 0, 0); fill: rgba(216, 216, 216, 0); stroke-width: 3px;" d="M 238.144 241.128 C 238.925 235.692 260.282 236.519 259.726 241.095"/>
  <path style="fill: rgb(216, 216, 216); stroke: rgb(0, 0, 0);" d="M 331.178 190.674"/>
  <path style="stroke: rgb(0, 0, 0); fill: rgba(255, 255, 255, 0); stroke-width: 3px;" d="M 211.614 228.089 C 213.9 216.829 240.118 218.388 238.086 228.609"/>
  <path style="stroke: rgb(0, 0, 0); fill: rgba(255, 255, 255, 0); stroke-width: 3px;" d="M 259.737 228.089 C 261.17 216.487 287.161 217.778 286.209 228.609"/>
  <line x1="211.03" y1="329.015" x2="285.32" y2="329.576" style="stroke: rgb(0, 0, 0); fill: rgba(0, 0, 0, 0); stroke-width: 4px;"/>
  <path style="stroke: rgb(0, 0, 0); stroke-width: 4px;" d="M 213.005 329.008 C 211.066 296.851 285.409 300.048 283.298 329.576"/>
  <path style="stroke: rgb(0, 0, 0); fill: rgba(216, 216, 216, 0); stroke-width: 3px;" d="M 261.323 280.966"/>
  <path style="stroke: rgb(0, 0, 0); fill: rgba(216, 216, 216, 0); stroke-width: 3px;" d="M 257.067 277.47"/>
  <path style="stroke: rgb(0, 0, 0); fill: rgba(216, 216, 216, 0); stroke-width: 3px;" d="M 235.532 329.576 C 237.099 356.047 260.33 355.748 258.709 329.893"/>
  <line style="stroke: rgb(0, 0, 0); stroke-linecap: round; stroke-width: 2px;" x1="248.066" y1="329.576" x2="248.066" y2="341.661"/>
  <path d="M 624.654 252.359 L 636.334 275.326 L 612.973 275.326 L 624.654 252.359 Z" transform="matrix(0.005606, -0.999984, 0.999976, 0.00709, -8.682865, 785.874451)" bx:shape="triangle 612.973 252.359 23.361 22.967 0.5 0 1@91002e03"/>
  <path d="M 691.101 237.654 L 698.877 250.257 L 683.325 250.257 L 691.101 237.654 Z" transform="matrix(0.444411, -0.895823, 0.851345, 0.534067, -217.915771, 667.473938)" bx:shape="triangle 683.325 237.654 15.552 12.603 0.5 0 1@133baa5b"/>
  <path d="M 576.195 213.877 L 584.267 227.187 L 568.122 227.187 L 576.195 213.877 Z" transform="matrix(0.147573, -0.989051, 0.983386, 0.18554, 13.175435, 731.3255)" bx:shape="triangle 568.122 213.877 16.145 13.31 0.5 0 1@7e0a81c4"/>
  <path d="M 504.741 159.941 L 513.388 174.918 L 496.094 174.918 L 504.741 159.941 Z" transform="matrix(-0.179595, -0.983741, 0.983741, -0.179595, 202.881531, 694.14856)" bx:shape="triangle 496.094 159.941 17.294 14.977 0.5 0 1@1547b9e1"/>
  <path d="M 454.109 214.575 L 462.331 235.788 L 445.887 235.788 L 454.109 214.575 Z" transform="matrix(0.585728, -0.810507, 0.810507, 0.585728, -164.042984, 406.735596)" bx:shape="triangle 445.887 214.575 16.444 21.213 0.5 0 1@62f567b6"/>
  <path d="M 532.279 181.197 L 542.294 198.545 L 522.263 198.545 L 532.279 181.197 Z" transform="matrix(-0.072873, -0.997341, 0.997341, -0.072873, 153.47229, 734.842712)" bx:shape="triangle 522.263 181.197 20.031 17.348 0.5 0 1@8a0210b1"/>
  <path d="M 408.36 190.467 L 419.654 210.028 L 397.066 210.028 L 408.36 190.467 Z" transform="matrix(-0.902649, -0.430377, 0.430377, -0.902649, 464.035187, 560.124084)" bx:shape="triangle 397.066 190.467 22.588 19.561 0.5 0 1@1918a32e"/>
  <path d="M 439.591 162.939 L 448.55 178.457 L 430.632 178.457 L 439.591 162.939 Z" transform="matrix(-0.683707, -0.729756, 0.729756, -0.683707, 388.342621, 609.725159)" bx:shape="triangle 430.632 162.939 17.918 15.518 0.5 0 1@dad4d785"/>
  <path d="M 451.681 158.166 L 459.829 172.28 L 443.532 172.28 L 451.681 158.166 Z" transform="matrix(-0.530591, -0.847628, 0.847628, -0.530591, 323.952209, 636.517151)" bx:shape="triangle 443.532 158.166 16.297 14.114 0.5 0 1@a4786873"/>
  <line style="stroke: rgb(0, 0, 0);" x1="231.37312802104972" y1="202.3580266455676" x2="262.6045919435578" y2="202.69384883828275"/>
  <line style="stroke: rgb(0, 0, 0);" x1="218.9477068905895" y1="208.73864830715527" x2="276.7091240375936" y2="210.08193707801584"/>
  <path d="M 246.609 265.853 L 262.605 292.206 L 245.694 291.795" style="stroke: rgb(0, 0, 0); stroke-linejoin: round; stroke-linecap: round; fill: rgba(255, 255, 255, 0); stroke-width: 4px;"/>
</svg>