<?xml version="1.0" encoding="utf-8"?>
<!-- Svg Vector Icons : http://www.onlinewebfonts.com/icon -->
<!DOCTYPE svg PUBLIC "-//W3C//DTD SVG 1.1//EN" "http://www.w3.org/Graphics/SVG/1.1/DTD/svg11.dtd">
<svg version="1.1" xmlns="http://www.w3.org/2000/svg" xmlns:xlink="http://www.w3.org/1999/xlink" x="0px" y="0px" viewBox="0 0 1000 1000" enable-background="new 0 0 1000 1000" xml:space="preserve">
<metadata> Svg Vector Icons : http://www.onlinewebfonts.com/icon </metadata>
<g><path d="M500,990C229.4,990,10,770.6,10,500C10,229.4,229.4,10,500,10c270.6,0,490,219.4,490,490C990,770.6,770.6,990,500,990L500,990z M500,928.8c236.4,0,428.8-192.4,428.8-428.8c0-236.5-192.4-428.8-428.8-428.8C263.6,71.2,71.2,263.6,71.2,500C71.2,736.4,263.6,928.8,500,928.8"/><path d="M500,653.2c-101.5,0-183.8-82.3-183.8-183.8c0-101.5,82.3-183.7,183.8-183.7c101.5,0,183.8,82.2,183.8,183.7C683.8,570.9,601.5,653.2,500,653.2L500,653.2z M500,591.9c67.6,0,122.5-55,122.5-122.5c0-67.5-54.9-122.5-122.5-122.5c-67.6,0-122.5,55-122.5,122.5C377.5,536.9,432.4,591.9,500,591.9"/><path d="M285.6,872h-61.3c0-152.2,123.4-275.6,275.6-275.6c152.2,0,275.6,123.4,275.6,275.6h-61.2c0-118.2-96.2-214.4-214.4-214.4C381.8,657.6,285.6,753.8,285.6,872"/></g>
</svg>